<?xml version="1.0" encoding="UTF-8" standalone="no"?>
<svg
   fill="white"
   stroke="black"
   stroke-linecap="round"
   stroke-linejoin="round"
   viewBox="0 0 265.99988 116.37694"
   version="1.1"
   id="svg14"
   width="265.99988"
   height="116.37694"
   sodipodi:docname="Screw_elements._Screw_point_(rotated).svg"
   inkscape:version="1.3.1 (9b9bdc1480, 2023-11-25, custom)"
   xmlns:inkscape="http://www.inkscape.org/namespaces/inkscape"
   xmlns:sodipodi="http://sodipodi.sourceforge.net/DTD/sodipodi-0.dtd"
   xmlns="http://www.w3.org/2000/svg"
   xmlns:svg="http://www.w3.org/2000/svg"
   xmlns:rdf="http://www.w3.org/1999/02/22-rdf-syntax-ns#"
   xmlns:cc="http://creativecommons.org/ns#"
   xmlns:dc="http://purl.org/dc/elements/1.1/">
  <sodipodi:namedview
     id="namedview1"
     pagecolor="#ffffff"
     bordercolor="#000000"
     borderopacity="0.25"
     inkscape:showpageshadow="2"
     inkscape:pageopacity="0.0"
     inkscape:pagecheckerboard="0"
     inkscape:deskcolor="#d1d1d1"
     inkscape:zoom="8.7105303"
     inkscape:cx="132.99994"
     inkscape:cy="58.205411"
     inkscape:window-width="3002"
     inkscape:window-height="1664"
     inkscape:window-x="70"
     inkscape:window-y="27"
     inkscape:window-maximized="1"
     inkscape:current-layer="svg14" />
  <title
     id="title14">Screw elements. Screw point (rotated)</title>
  <defs
     id="defs14">
    <marker
       id="a"
       markerHeight="25"
       markerWidth="59"
       refX="29.299999"
       refY="10.5">
      <path
         d="m 56.4,8.3 -12.5,5.4 c -9.4,3.6 -20,4.8 -28.7,7.7 0,0 -2.9,1 -2.9,3.1 L 1.8,20.9 C -0.1,20 0.3,19.1 2.2,18.2"
         id="path1" />
      <path
         d="m 14.7,12.8 c 9.4,-3.6 20,-4.8 28.7,-7.7 0,0 2.9,-1 2.9,-3.1 l 10.5,3.6 c 1.9,0.9 1.5,1.8 -0.4,2.7 -8.7,4.3 -49.1,7.8 -54.2,9.9 z"
         id="path2" />
    </marker>
  </defs>
  <metadata
     id="metadata14">
    <rdf:RDF>
      <cc:Work
         rdf:about="">
        <dc:title>Screw elements. Screw point (rotated)</dc:title>
        <dc:date>2024-06-19</dc:date>
        <dc:creator>
          <cc:Agent>
            <dc:title>Andrew Pertsev (original creator) Public-Publicity (editor)</dc:title>
          </cc:Agent>
        </dc:creator>
        <dc:rights>
          <cc:Agent>
            <dc:title>CC0 1.0 | CC0 1.0 Universal Deed  | https://creativecommons.org/publicdomain/zero/1.0/deed.en</dc:title>
          </cc:Agent>
        </dc:rights>
        <dc:publisher>
          <cc:Agent>
            <dc:title>Public-Publicity</dc:title>
          </cc:Agent>
        </dc:publisher>
        <dc:identifier>Public-Publicity_Screw_element_point_rotated_2024-06-19</dc:identifier>
        <dc:source>https://commons.wikimedia.org/wiki/File:Screw_elements._Screw_gimlet.svg</dc:source>
        <dc:subject>
          <rdf:Bag>
            <rdf:li>fastener</rdf:li>
            <rdf:li>screw</rdf:li>
            <rdf:li>screw point</rdf:li>
          </rdf:Bag>
        </dc:subject>
        <dc:description>Screw with it's head identified. (This file is an adaptation by rotating the original work of Andrew Pertsev that was released under the Creative Commons CC0 1.0 Universal Public Domain Dedication at the website Wikimedia commons at https://commons.wikimedia.org/wiki/File:Screw_elements._Screw_gimlet.svg)</dc:description>
      </cc:Work>
    </rdf:RDF>
  </metadata>
  <g
     id="g1"
     transform="rotate(-90,57.844234,59.344234)">
    <marker
       id="marker4"
       markerHeight="25"
       markerWidth="59"
       refX="29.299999"
       refY="10.5">
      <path
         d="m 56.4,8.3 -12.5,5.4 c -9.4,3.6 -20,4.8 -28.7,7.7 0,0 -2.9,1 -2.9,3.1 L 1.8,20.9 C -0.1,20 0.3,19.1 2.2,18.2"
         id="path3" />
      <path
         d="m 14.7,12.8 c 9.4,-3.6 20,-4.8 28.7,-7.7 0,0 2.9,-1 2.9,-3.1 l 10.5,3.6 c 1.9,0.9 1.5,1.8 -0.4,2.7 -8.7,4.3 -49.1,7.8 -54.2,9.9 z"
         id="path4" />
    </marker>
    <path
       d="m 115,10 c 3,-3 2,-8 -3,-8 H 6 C 1,2 0,7 3,10"
       id="path5" />
    <path
       d="m 76,59 c 0,-9 5,-17 9,-21 H 32 c 4,4 10,12 10,21"
       id="path6" />
    <path
       d="M 85,38 115,10 H 3 l 29,28 z"
       id="path7" />
    <path
       d="m 42,215 17,52 17,-52"
       fill="#08f"
       id="path8" />
    <path
       d="M 42,215 V 59 h 34 v 156 z"
       id="path9" />
    <path
       d="m 81.7,224.1 -11.9,6 c -7.6,3.5 -14.4,5.1 -17.6,7 -1.4,0.8 -2.1,2.7 -2.1,2.7 l -6,-3.8 c -1.2,-0.8 -2.9,-2.6 -1,-3.3"
       id="path10" />
    <path
       d="m 43.1,232.7 6.3,-3.3 c 5.8,-2.7 16.4,-4.1 23.2,-7.7 1.4,-0.8 2.1,-2.7 2.1,-2.7 l 6,2.5 c 1.6,0.7 2.9,1.9 1,2.6 -12.5,4.3 -24.5,5.3 -38.6,8.6"
       id="path11" />
    <path
       d="m 72.6,244.4 c -2.7,1.7 -5.9,3.6 -8.2,6.1 -0.7,-1.2 -2.3,-1.6 -4,-2"
       id="path12" />
    <path
       d="m 72.8,243.2 c -1.8,-0.9 -3.4,-1.3 -5.4,-1.7 0,0 -0.6,1.7 -1.1,2.4 -1.8,1.9 -4.3,2.4 -6.5,3.5 l 0.6,1.1 c 4.2,-1.1 8.2,-2.6 12.2,-4.1 0,0 1.1,-0.7 0.2,-1.2 z"
       id="path13" />
    <path
       d="m 33,63 9,-2.8 4.3,1.4"
       id="path14" />
    <path
       d="m 33,63 9,4 c 0.5,-2.6 2.3,-4.8 4.3,-5.4 z"
       id="path15" />
    <path
       d="m 59,78 v 1 30 30 30 30 1"
       marker-mid="url(#a)"
       stroke="none"
       id="path16" />
  </g>
  <path
     style="fill:#1a1a1a;stroke-width:0.114804"
     d="M 3.7363169,116.22801 C 2.5120824,115.98804 1.3355679,115.11135 0.72056506,113.9808 0.0086792,112.67217 0.06095821,117.07687 0.05909871,58.249782 0.05798404,22.985981 0.09674541,4.3538993 0.17206644,3.9476919 0.33727502,3.0567193 1.0053383,1.768429 1.5637868,1.2639042 2.2123762,0.6779427 3.3018783,0.18955049 4.1606927,0.09978662 5.6228387,-0.05303788 7.3673716,0.57714131 8.5720159,1.6932928 8.929829,2.024821 15.386648,8.9087572 22.920502,16.990929 c 7.533854,8.082171 14.068494,15.046719 14.521422,15.476772 3.531088,3.352752 8.830786,6.226813 13.760469,7.462393 2.872161,0.71988 3.770537,0.780242 11.061376,0.743221 l 6.469233,-0.03285 1.767762,-5.160268 c 0.972268,-2.838148 1.899055,-5.358667 2.059527,-5.601156 0.318494,-0.481279 0.896617,-0.89028 1.258406,-0.89028 0.413287,0 0.972607,0.445585 1.408672,1.122225 0.235503,0.365428 1.383925,2.896242 2.552051,5.624031 l 2.123867,4.959617 9.413893,-0.02708 9.413893,-0.02708 1.750967,-5.107132 c 0.96304,-2.808924 1.89295,-5.335664 2.06647,-5.614981 0.36481,-0.58724 1.03373,-0.99118 1.46297,-0.883447 0.44389,0.111409 1.05359,0.715715 1.43929,1.426542 0.19407,0.357677 1.27238,2.794278 2.39624,5.414669 l 2.04338,4.764349 9.41051,0.02936 9.41052,0.02936 1.75989,-5.138124 c 0.96793,-2.825967 1.83883,-5.267276 1.93532,-5.425131 0.89746,-1.468163 1.89512,-1.471071 2.82718,-0.0082 0.26439,0.414955 0.59818,1.038603 0.74175,1.385884 0.14356,0.347281 1.09072,2.555814 2.10479,4.907852 l 1.84377,4.276434 h 9.38426 9.38427 l 0.29788,-0.832326 c 0.16383,-0.45778 0.96832,-2.790654 1.78776,-5.184166 0.81944,-2.393511 1.6226,-4.5524 1.78482,-4.79753 0.3213,-0.485509 0.89858,-0.895084 1.26159,-0.895084 0.69728,0 1.54617,1.053579 2.28876,2.840625 0.22955,0.552439 1.17753,2.773144 2.1066,4.934898 l 1.68923,3.930463 9.40887,-0.02714 9.40888,-0.02714 1.75013,-5.097659 c 0.96257,-2.803713 1.89473,-5.330454 2.07149,-5.614981 0.37065,-0.596697 1.03644,-1.00144 1.46882,-0.89292 0.43735,0.109769 0.99555,0.664205 1.41387,1.40437 0.20905,0.369871 1.29847,2.81645 2.42094,5.436841 l 2.04086,4.764349 6.93555,0.05842 6.93555,0.05842 1.71667,0.60134 c 0.94418,0.330737 1.74961,0.562757 1.78987,0.515599 0.0402,-0.04716 0.5287,-1.196467 1.08546,-2.554019 1.51706,-3.699131 1.95293,-4.511533 2.65249,-4.943883 0.46875,-0.289707 0.97187,-0.282012 1.35677,0.02075 0.20973,0.164976 1.17192,1.968639 2.99582,5.615783 1.47776,2.955013 2.75348,5.415813 2.83491,5.468446 0.16621,0.107416 11.38065,3.802484 11.43097,3.766409 0.0177,-0.01268 0.15633,-0.535816 0.30808,-1.162523 0.27561,-1.13825 0.73778,-2.489093 1.19967,-3.506425 0.25108,-0.553015 0.71142,-1.010829 1.0164,-1.010829 0.37336,0 0.95754,0.507352 1.36272,1.183503 1.69496,2.828506 3.95362,5.934579 5.17609,7.118072 l 0.57052,0.552332 8.25386,2.700332 c 4.53963,1.485182 8.29224,2.760649 8.33914,2.834372 0.12768,0.200714 0.10641,0.378311 -0.0621,0.518141 -0.083,0.06886 -6.23884,2.115345 -13.67969,4.547734 -7.44086,2.432389 -13.53938,4.43592 -13.55229,4.452292 -0.0129,0.01637 -0.90968,1.431371 -1.99283,3.144445 -1.1939,1.888227 -2.20304,3.352063 -2.56279,3.71754 -1.00379,1.019743 -1.95004,1.28875 -2.6024,0.739825 -0.21564,-0.18144 -0.7499,-1.072537 -1.41106,-2.353474 -0.58521,-1.133809 -1.10734,-2.061471 -1.16029,-2.061471 -0.053,0 -3.49096,1.110725 -7.64001,2.468277 -7.26528,2.377171 -7.57758,2.468296 -8.4607,2.468807 l -0.91696,5.32e-4 -1.71085,5.022124 c -0.94097,2.76217 -1.84267,5.271792 -2.00378,5.57694 -0.40884,0.774375 -0.83928,1.109838 -1.42405,1.109838 -0.72971,0 -1.37981,-0.743836 -2.10254,-2.405718 -0.31098,-0.715091 -1.3404,-3.088168 -2.28759,-5.273506 l -1.72218,-3.973339 -9.38507,-0.02937 c -5.16179,-0.01615 -9.38507,-0.01077 -9.38507,0.01196 0,0.229248 -3.52867,10.244424 -3.75772,10.665249 -0.3888,0.71438 -0.79265,1.004724 -1.39747,1.004724 -0.39376,0 -0.54017,-0.07154 -0.9007,-0.440136 -0.57522,-0.588078 -0.73738,-0.923768 -3.11492,-6.448078 l -2.05046,-4.764349 h -9.38518 -9.38519 l -1.80283,5.25227 c -1.89753,5.528165 -2.06457,5.89582 -2.86403,6.303781 -0.50803,0.259248 -0.99263,0.111388 -1.50463,-0.459091 -0.52463,-0.584546 -0.64803,-0.84473 -3.04447,-6.418714 l -2.03602,-4.735647 h -9.33515 c -5.57086,0 -9.36152,0.04267 -9.40054,0.105813 -0.036,0.0582 -0.84204,2.369375 -1.79126,5.135948 -0.94922,2.766573 -1.85271,5.246598 -2.00777,5.511165 -0.62865,1.072714 -1.43329,1.2647 -2.24126,0.534756 -0.56758,-0.512779 -0.82772,-1.050827 -3.33369,-6.895062 l -1.88233,-4.389852 -9.36941,-0.0014 -9.369403,-0.0014 -1.753556,5.137459 c -1.001884,2.935257 -1.897038,5.367248 -2.088281,5.673525 -0.418464,0.670175 -0.761559,0.89898 -1.348028,0.89898 -0.372647,0 -0.535901,-0.07647 -0.864288,-0.404862 -0.549957,-0.549956 -0.616569,-0.687602 -3.054211,-6.311147 l -2.139851,-4.936554 -7.393182,-0.02893 -7.393183,-0.02893 -1.884739,4.276663 c -1.036608,2.352166 -1.954792,4.392902 -2.040411,4.534972 -0.162429,0.269523 -0.337176,0.318406 -0.582198,0.162864 -0.07965,-0.05056 -0.559666,-1.431718 -1.066709,-3.069238 -0.507042,-1.637521 -1.131011,-3.643621 -1.386598,-4.458002 l -0.464702,-1.480694 -1.453482,0.07713 c -5.259976,0.279107 -10.142213,2.120156 -15.200121,5.731832 -3.090449,2.206782 -2.567806,1.682892 -28.671664,28.74006 -2.366935,2.45338 -4.5367223,4.64768 -4.8217505,4.87619 -0.7270063,0.58291 -1.62199,1.00991 -2.5122482,1.1986 -0.8475358,0.17964 -1.2110575,0.18705 -1.9615074,0.0399 z m 2.8067574,-1.23503 c 0.410118,-0.19192 0.9267734,-0.48708 1.1481232,-0.65592 L 8.0936519,114.0301 V 58.201432 2.372767 L 7.6442985,2.0168725 C 6.8466263,1.3851044 5.9575954,1.0523542 4.9212945,0.99769511 3.6035773,0.92819288 2.9524214,1.1621387 2.1050517,2.0095083 1.5585854,2.5559747 1.4135726,2.7908549 1.212699,3.4548712 l -0.23985092,0.792861 0.030192,54.1872868 0.030192,54.187281 0.3222003,0.68883 c 0.7009817,1.4986 1.8426965,2.16619 3.5523328,2.07713 0.6850098,-0.0357 1.061155,-0.12661 1.6353091,-0.39528 z M 22.599315,98.975088 36.105724,84.983458 36.103005,58.679033 36.100287,32.374607 22.597318,17.909357 C 15.170684,9.9534698 9.0500068,3.4268866 8.9958123,3.4058394 8.9410516,3.3845721 8.8972769,27.729437 8.8972769,58.205411 c 0,30.162629 0.044014,54.820619 0.097815,54.799569 0.053798,-0.021 6.1757001,-6.3345 13.6042231,-14.029892 z M 87.129368,86.121464 c 0.184019,-0.241261 0.929778,-2.241727 2.014905,-5.404889 0.947515,-2.762024 1.722561,-5.056503 1.722324,-5.098843 -2.36e-4,-0.04234 -0.231898,-0.172169 -0.514804,-0.28851 -0.63875,-0.262677 -1.557568,-1.244803 -2.018141,-2.157193 -0.678717,-1.34453 -1.971888,-6.123079 -3.553178,-13.12976 -1.544228,-6.842471 -2.573763,-10.766708 -3.679431,-14.024747 -0.516666,-1.522444 -2.959182,-7.448384 -3.034777,-7.362858 -0.0166,0.01878 0.16443,0.98988 0.402282,2.158006 1.087486,5.340795 2.021509,11.35441 4.306203,27.725063 1.903964,13.642576 2.445863,16.4167 3.436924,17.59451 0.394763,0.469148 0.553053,0.467288 0.917693,-0.01078 z m 29.878512,0.12472 c 0.12941,-0.142069 0.29684,-0.377575 0.37207,-0.523347 0.18127,-0.351236 3.45081,-9.878788 3.45081,-10.055807 0,-0.07565 -0.19373,-0.207499 -0.43051,-0.292987 -0.59793,-0.215875 -1.62258,-1.308455 -2.0565,-2.192844 -0.69269,-1.411813 -1.74378,-5.193803 -3.14104,-11.302073 -2.32225,-10.15187 -3.08007,-13.033204 -4.41252,-16.777065 -0.4617,-1.297273 -2.61771,-6.36424 -2.68104,-6.300902 -0.0231,0.02313 0.0425,0.446439 0.14579,0.940682 1.13595,5.434082 2.22105,12.284691 4.1974,26.49982 2.25804,16.241093 2.77289,18.915473 3.84866,19.991239 0.33597,0.335974 0.41168,0.337396 0.70688,0.01328 z m 30.16392,-0.172205 c 0.20377,-0.309034 3.7375,-10.268051 3.7375,-10.533326 0,-0.01783 -0.13334,-0.06588 -0.2963,-0.106779 -0.81291,-0.204026 -1.83996,-1.270074 -2.38989,-2.480644 -0.68952,-1.517834 -1.78823,-5.64132 -3.45543,-12.968363 -1.75315,-7.704764 -2.76172,-11.46997 -3.99777,-14.924465 -0.45376,-1.268177 -2.70923,-6.596871 -2.716,-6.416709 -0.001,0.03833 0.22731,1.226548 0.50835,2.640482 1.03527,5.208667 1.97131,11.20104 3.79988,24.326067 2.3753,17.049481 2.82366,19.396125 3.93172,20.57854 0.39179,0.418085 0.53927,0.3988 0.87794,-0.114803 z m 29.95882,0.05371 c 0.17804,-0.233424 0.94474,-2.292951 2.0149,-5.412507 0.95013,-2.769638 1.72731,-5.06692 1.72708,-5.10507 -2.4e-4,-0.03815 -0.22835,-0.163085 -0.50693,-0.277634 -0.70429,-0.289602 -1.60135,-1.277999 -2.07562,-2.286922 -0.74559,-1.586165 -1.85377,-5.713953 -3.61423,-13.462504 -1.56738,-6.898669 -2.5384,-10.567985 -3.67607,-13.891232 -0.42345,-1.236927 -2.87094,-7.10151 -2.93448,-7.031495 -0.0142,0.01566 0.17384,1.010048 0.41792,2.209745 0.99773,4.904301 2.07811,11.794317 3.89086,24.813432 2.31824,16.649634 2.78662,19.164236 3.79806,20.390475 0.1953,0.236782 0.4262,0.430513 0.5131,0.430513 0.0869,0 0.28734,-0.16956 0.44541,-0.376801 z m 29.88326,0.118493 c 0.12941,-0.142069 0.2938,-0.371895 0.36531,-0.510723 0.17134,-0.332583 3.45757,-9.910366 3.45757,-10.077141 0,-0.07086 -0.17148,-0.190853 -0.38107,-0.26664 -0.94698,-0.342434 -1.97515,-1.638494 -2.52287,-3.180233 -0.76803,-2.161819 -1.75805,-6.009725 -3.35206,-13.028503 -2.11003,-9.290907 -3.17179,-12.852417 -5.31251,-17.819979 -0.67237,-1.560251 -1.23112,-2.826051 -1.24165,-2.812892 -0.0105,0.01316 0.1544,0.863782 0.36651,1.890272 0.21211,1.02649 0.59334,3.041292 0.84717,4.477339 0.93574,5.293951 1.18408,6.964802 3.97135,26.719745 1.05642,7.487334 1.80552,11.797788 2.2838,13.141247 0.33418,0.938706 0.87517,1.704264 1.21709,1.722325 0.0363,0.0019 0.17197,-0.112748 0.30136,-0.254817 z M 38.114786,83.121358 c 3.269892,-2.891307 7.223607,-5.310379 11.078545,-6.778383 2.143221,-0.816162 5.529891,-1.548447 7.161256,-1.548447 h 0.645387 V 58.221823 41.649119 l -1.144577,-0.07883 C 49.651262,41.142984 42.786878,38.2346 37.719835,33.886393 c -0.343507,-0.294776 -0.666392,-0.535955 -0.717522,-0.535955 -0.05113,0 -0.09296,11.420264 -0.09296,25.378365 0,20.27248 0.02887,25.36089 0.143504,25.291507 0.07893,-0.04777 0.556797,-0.4523 1.061933,-0.898952 z m 25.250513,-4.187906 c 0.796652,-1.796247 1.426983,-3.321866 1.400737,-3.390263 -0.02625,-0.0684 -0.326297,-0.212172 -0.666779,-0.319499 -0.794001,-0.250287 -1.80951,-0.862713 -2.669588,-1.609958 l -0.679065,-0.589979 0.06758,0.512276 c 0.03717,0.281751 0.262544,2.385136 0.500836,4.674187 0.238294,2.289052 0.470288,4.123039 0.515542,4.075527 0.04525,-0.04751 0.734087,-1.556043 1.53074,-3.352291 z m 20.223028,1.055937 C 83.452451,79.545857 82.845315,75.402906 81.388581,64.978822 79.59006,52.108986 78.706974,46.491354 77.661878,41.271884 76.398311,34.961321 75.181685,31.083202 74.169567,30.139779 c -0.337224,-0.314334 -0.51803,-0.266682 -0.890279,0.234644 -0.154049,0.207466 -3.025544,8.356839 -3.585495,10.175725 -0.0657,0.213425 -0.0129,0.281389 0.329942,0.424636 1.21377,0.507146 2.059438,1.703716 2.777202,3.929581 0.909914,2.821741 1.29762,4.36921 3.591344,14.334279 1.097573,4.768396 1.958578,7.974721 2.894362,10.778403 0.687228,2.058992 4.092346,10.173249 4.269165,10.173249 0.05174,0 0.06637,-0.09041 0.03252,-0.200907 z m 29.717833,-1.638901 c -0.30803,-1.963201 -1.0855,-7.396505 -2.40623,-16.815773 -2.72219,-19.414288 -4.53781,-28.171828 -6.43208,-31.024802 -0.45373,-0.68336 -0.71864,-0.759083 -1.07422,-0.307046 -0.2918,0.370964 -0.36768,0.575175 -2.18038,5.868009 -0.81751,2.38699 -1.519397,4.423009 -1.559753,4.524486 -0.05525,0.138919 0.07737,0.258255 0.536763,0.483019 0.73025,0.357274 1.19957,0.822688 1.74302,1.728497 0.722,1.203415 1.76603,4.757797 3.10674,10.576783 0.42189,1.831117 1.10127,4.775829 1.50972,6.543804 1.91807,8.302265 2.5876,10.274004 6.72043,19.791165 0.12041,0.277289 0.24049,0.482607 0.26683,0.456262 0.0263,-0.02635 -0.0775,-0.847327 -0.23084,-1.824404 z m 29.8066,-1.275983 c -0.25419,-1.664411 -0.9292,-6.384205 -1.50003,-10.488433 -2.1912,-15.754786 -3.21275,-22.106012 -4.49631,-27.95467 -1.14822,-5.231897 -2.48192,-8.725071 -3.33124,-8.725071 -0.11446,0 -0.33273,0.19358 -0.48543,0.430513 -0.24417,0.378838 -3.62911,10.045317 -3.62911,10.363732 0,0.0681 0.18196,0.199841 0.40437,0.292766 0.57342,0.239591 1.28428,0.913257 1.79581,1.701828 0.86066,1.326813 1.90608,5.073066 4.05542,14.532708 1.54292,6.790657 2.60418,10.738034 3.73164,13.879878 0.30847,0.859597 1.26667,3.190246 2.12934,5.179218 0.86266,1.988972 1.59542,3.683118 1.62834,3.764769 0.18524,0.459369 0.11188,-0.261962 -0.3028,-2.977238 z m 30.04876,0.331804 c -0.2377,-1.531193 -0.97818,-6.710269 -1.64551,-11.509058 -2.28484,-16.430568 -3.54295,-23.985554 -4.88239,-29.318868 -0.84502,-3.36467 -1.77391,-5.796311 -2.45956,-6.438604 -0.3359,-0.314655 -0.51541,-0.266939 -0.89166,0.236997 -0.16734,0.22413 -3.635,10.059962 -3.64525,10.33955 -0.002,0.04172 0.22862,0.187879 0.51143,0.324791 0.76585,0.370738 1.50692,1.193049 2.01671,2.237817 0.76433,1.566357 1.87197,5.633001 3.5496,13.032218 1.6575,7.310387 2.72837,11.359266 3.84101,14.522652 0.5399,1.534991 3.86281,9.356419 3.97506,9.356466 0.0345,1.4e-5 -0.13172,-1.252768 -0.36944,-2.783961 z m 30.15943,0.999332 c -0.40016,-2.503259 -0.96629,-6.434982 -2.07387,-14.402649 -2.33012,-16.762502 -3.69941,-24.528532 -5.24261,-29.734126 -0.70922,-2.392361 -1.67541,-4.362535 -2.13942,-4.362535 -0.51614,0 -0.62325,0.246007 -2.53179,5.81524 -0.89049,2.598533 -1.64914,4.80291 -1.68586,4.898615 -0.048,0.124977 0.0893,0.243069 0.48728,0.419091 0.67631,0.299162 1.48176,1.134492 1.95886,2.031539 0.7425,1.396052 1.83876,5.411128 3.64645,13.35514 1.71113,7.51968 2.63291,11.001459 3.80768,14.382364 0.41571,1.19639 3.63278,8.860267 3.90242,9.296557 0.15344,0.248259 0.12738,-0.09455 -0.12914,-1.699236 z M 60.266371,76.564066 c -0.161268,-1.573095 -0.32278,-2.989326 -0.358915,-3.147181 -0.05297,-0.23141 -0.132431,-0.08972 -0.410162,0.731433 l -0.34446,1.018443 0.668869,2.163245 c 0.367879,1.189784 0.684397,2.147716 0.703375,2.128738 0.01898,-0.01898 -0.09744,-1.321583 -0.258707,-2.894678 z m -1.213154,-3.864704 c 0.379423,-1.15234 0.770094,-2.146562 0.868156,-2.209382 0.281267,-0.180178 0.525815,0.05353 0.78362,0.748879 0.355219,0.9581 1.678798,2.231909 2.953588,2.842527 0.536707,0.257081 1.2858,0.52496 1.664652,0.595289 0.471994,0.08762 2.917508,0.117259 7.768973,0.09416 L 80.172357,74.737125 79.824186,73.9335 C 78.267115,70.339583 76.968579,65.77685 74.857939,56.483358 73.171467,49.05754 71.922179,44.481989 71.275474,43.362487 70.843643,42.61495 70.311941,42.062263 69.801557,41.830401 69.37643,41.637271 68.906078,41.621146 63.62988,41.618816 l -5.711478,-0.0025 v 16.589116 c 0,16.335382 0.0034,16.589117 0.222478,16.589117 0.186774,0 0.333189,-0.336238 0.912337,-2.095166 z m 51.100813,2.054723 c 0,-0.02224 -0.23624,-0.603438 -0.52498,-1.291541 -0.72638,-1.731084 -1.7502,-4.837784 -2.4934,-7.566036 -0.62596,-2.297865 -1.15618,-4.508022 -2.78154,-11.594418 -1.31793,-5.746079 -2.36906,-9.52347 -2.99239,-10.753537 -0.38484,-0.759452 -1.04018,-1.464289 -1.597415,-1.718073 -0.432253,-0.196863 -1.01648,-0.209291 -9.950624,-0.211664 l -9.491408,-0.0025 0.458196,1.056424 c 1.229817,2.835486 2.745118,8.004594 4.178958,14.25557 2.181916,9.512304 2.552589,11.014185 3.400982,13.779991 0.827005,2.696082 1.565213,3.729938 2.841448,3.979422 0.406747,0.07951 18.952173,0.144471 18.952173,0.06638 z m 29.96373,-0.05456 c 0,-0.05225 -0.21097,-0.581442 -0.46885,-1.175973 -1.09715,-2.529629 -2.67514,-7.847457 -3.88111,-13.079468 -0.31292,-1.357552 -0.99002,-4.293378 -1.50468,-6.524057 -1.98628,-8.609265 -2.84241,-11.061214 -4.1686,-11.938962 l -0.4644,-0.307365 -9.62324,-0.03124 c -5.29279,-0.01718 -9.62324,-0.0016 -9.62324,0.03455 0,0.03619 0.20919,0.55731 0.46488,1.15805 1.23284,2.896564 2.66332,7.811623 4.1309,14.193528 2.24008,9.741274 2.38929,10.347989 3.28209,13.346003 0.60466,2.030449 0.95347,2.798822 1.5782,3.476568 0.52592,0.570562 0.77019,0.723591 1.33546,0.83662 0.57392,0.114757 18.94259,0.126146 18.94259,0.01174 z m 29.6706,-0.837731 c -1.57555,-3.681035 -2.70453,-7.687463 -5.09119,-18.067255 -1.26534,-5.50303 -2.22014,-9.196969 -2.87498,-11.122683 -0.53405,-1.570509 -1.21922,-2.510165 -2.09803,-2.877262 -0.37418,-0.156304 -1.59552,-0.178296 -9.90181,-0.178296 -5.21124,0 -9.47498,0.02101 -9.47498,0.0467 0,0.02568 0.15874,0.400232 0.35274,0.832326 0.89528,1.993919 2.33565,6.534757 3.30815,10.429126 0.25228,1.010271 0.95523,4.006645 1.5621,6.658607 2.18819,9.562144 3.13375,12.856028 4.02658,14.026579 0.41347,0.542089 1.03447,0.981564 1.52067,1.076165 0.2327,0.04528 4.61865,0.08827 9.74655,0.09553 l 9.32342,0.0132 z m 30.37167,0.880896 c 0,-0.02851 -0.18702,-0.477178 -0.41558,-0.997034 -1.4274,-3.246499 -2.80556,-8.097464 -4.80636,-16.917885 -1.63679,-7.215695 -2.81587,-11.634443 -3.49601,-13.101771 -0.40216,-0.867573 -1.06505,-1.619196 -1.67177,-1.895517 -0.43226,-0.196866 -1.01662,-0.209291 -9.95486,-0.211664 l -9.49564,-0.0025 0.41307,0.94713 c 0.54724,1.254804 1.75193,4.784533 2.34113,6.85948 0.60931,2.145827 1.6761,6.520863 2.91356,11.948998 1.43363,6.288504 2.49005,10.13347 3.13596,11.413562 0.5946,1.178419 1.17338,1.723322 2.00442,1.88709 0.49648,0.09784 19.03208,0.166139 19.03208,0.07013 z m 12.858,-16.537276 V 41.616295 h -6.3142 c -3.47281,0 -6.31407,0.03875 -6.31392,0.0861 1.5e-4,0.04736 0.20862,0.569056 0.46328,1.159331 0.65703,1.522935 1.8214,5.069808 2.56849,7.824048 0.62452,2.302397 0.91503,3.517154 2.82793,11.824768 1.33379,5.792557 2.40686,9.553918 3.02798,10.613782 0.34283,0.584992 1.22111,1.412476 1.58109,1.489635 0.1458,0.03125 0.36841,0.07867 0.4947,0.105376 0.12628,0.02671 0.55249,0.05455 0.94713,0.06187 l 0.71752,0.01332 z m 8.13221,14.021383 c 3.92933,-1.28597 7.17107,-2.36496 7.20387,-2.397755 0.0328,-0.0328 -0.27355,-0.750049 -0.68077,-1.593896 -1.12228,-2.325573 -1.77138,-4.33365 -3.63168,-11.235169 -1.47531,-5.473242 -2.5129,-8.603097 -3.67626,-11.089358 -0.93637,-2.001176 -1.56912,-2.498314 -4.37531,-3.437589 -1.03048,-0.344919 -1.91411,-0.627125 -1.96361,-0.627125 -0.0495,0 -0.09,7.361779 -0.09,16.359509 0,8.99773 0.0156,16.359509 0.0348,16.359509 0.0191,0 3.24968,-1.052157 7.17901,-2.338126 z m 11.80509,1.893616 c 0.25033,-0.181338 0.61377,-0.530054 0.80764,-0.774924 0.39692,-0.501329 3.82302,-5.892639 3.82302,-6.015892 0,-0.04371 -0.30147,-0.265547 -0.66994,-0.492979 -1.65399,-1.020904 -2.21815,-2.104303 -4.66522,-8.959176 -2.46319,-6.900025 -3.30841,-8.915503 -5.72103,-13.642181 -0.95679,-1.874523 -1.75431,-3.393549 -1.77224,-3.375614 -0.0179,0.01794 0.19639,0.905866 0.47629,1.97318 1.03654,3.952507 1.75041,7.376955 3.45592,16.578025 1.51515,8.174027 2.78098,14.323353 3.05314,14.831892 0.16517,0.308623 0.69071,0.255597 1.21242,-0.122331 z m -3.73991,-7.268499 c -0.38106,-1.914186 -1.13225,-5.856773 -1.66929,-8.761303 -1.36743,-7.395604 -1.99425,-10.434937 -2.88857,-14.006036 -0.9038,-3.609029 -2.39215,-8.495299 -2.72721,-8.953527 -0.15211,-0.20802 -0.17321,-0.208961 -0.46073,-0.02057 -0.16573,0.108588 -0.43513,0.409407 -0.59868,0.668486 -0.42133,0.667419 -2.82107,6.461391 -2.69393,6.504243 0.38778,0.130688 1.80223,1.272602 2.13023,1.719767 0.46781,0.637766 1.55,3.04983 2.28238,5.087116 0.69163,1.92394 1.36408,4.195947 2.60786,8.811143 1.14138,4.235186 1.8299,6.523937 2.45725,8.168227 0.45951,1.204391 2.15616,4.554942 2.21584,4.37587 0.0207,-0.06219 -0.27409,-1.679229 -0.65515,-3.593415 z m 16.92344,-2.795087 c 15.08802,-4.925699 17.75808,-5.818734 17.66446,-5.908103 -0.10437,-0.09962 -14.49486,-4.822461 -14.69404,-4.822461 -0.20577,0 -0.71412,0.619377 -0.95446,1.162918 -0.12927,0.292325 -0.35644,0.989756 -0.50484,1.549849 l -0.26981,1.018349 -0.67081,0.378285 c -0.36893,0.208058 -0.77601,0.363043 -0.90461,0.344411 -0.23915,-0.03465 -0.36508,-0.288004 -1.55753,-3.133571 -0.89223,-2.129149 -1.83826,-3.381807 -2.89372,-3.831641 -0.49645,-0.211585 -12.38386,-4.147208 -12.5265,-4.147208 -0.0349,0 0.24878,0.710347 0.63038,1.578549 1.01978,2.320143 2.20717,5.38217 3.59487,9.270389 2.48521,6.963341 2.95211,7.846397 4.6341,8.764684 l 0.61697,0.336838 0.81808,-0.268704 c 0.44994,-0.147788 3.60779,-1.179449 7.01746,-2.292584 z m 0.28701,-7.609343 c 0,-0.321285 -1.25796,-4.34485 -2.06787,-6.614041 -1.7064,-4.781002 -2.02529,-5.539893 -2.23836,-5.326832 -0.14056,0.140563 -0.86398,2.049629 -1.14349,3.017579 -0.16337,0.565807 -0.30848,1.253641 -0.32246,1.528521 l -0.0254,0.49978 0.67478,0.287449 c 0.37112,0.158097 0.87433,0.413426 1.11824,0.567398 0.92832,0.586017 1.95852,2.24084 3.03218,4.870585 0.29646,0.726133 0.56068,1.356732 0.58717,1.401331 0.0838,0.141081 0.38521,-0.04028 0.38521,-0.23177 z m 0.83707,-2.083111 c 0.11117,-0.313026 0.38323,-0.806389 0.60457,-1.09636 l 0.40244,-0.52722 -0.87756,-0.998805 c -0.48266,-0.549343 -1.24304,-1.501454 -1.68974,-2.1158 -0.4467,-0.614347 -0.82534,-1.103825 -0.84144,-1.087729 -0.0161,0.01609 0.24335,0.802882 0.57656,1.748413 0.3332,0.945533 0.80708,2.377835 1.05305,3.182895 0.24599,0.80506 0.47487,1.463746 0.50861,1.463746 0.0337,0 0.15233,-0.256113 0.26351,-0.56914 z"
     id="path24" />
  <path
     style="fill:#1a1a1a;stroke-width:0.114804"
     d="M 9.0825383,109.1935 C 9.038869,107.29083 9.0087961,82.762599 9.0157097,54.686332 L 9.0282798,3.6385725 9.9246673,4.574572 C 10.417681,5.0893718 16.484275,11.578944 23.405987,18.995845 L 35.99092,32.481119 V 58.69037 84.899622 L 24.603845,96.6945 c -6.262891,6.48718 -12.299412,12.73167 -13.414491,13.87665 l -2.027417,2.08177 z"
     id="path25" />
  <path
     style="fill:#1a1a1a;stroke-width:0.114804"
     d="M 3.8154355,115.20044 C 2.7264371,114.93087 1.9842161,114.29667 1.4699612,113.19632 L 1.1480357,112.5075 1.1179054,58.435019 1.0877751,4.3625358 1.3275643,3.5696747 C 1.5284026,2.9056041 1.6733442,2.6708229 2.2198553,2.1243119 3.0638419,1.2803253 3.7432246,1.0323608 4.95958,1.1243536 c 0.9295285,0.0703 1.9827368,0.4877341 2.6461567,1.0487916 L 7.9788483,2.4886874 V 58.209774 113.93086 l -0.3760502,0.28683 c -1.0530713,0.80322 -2.7421124,1.24149 -3.7873626,0.98275 z"
     id="path26" />
  <path
     style="fill:#1a1a1a;stroke-width:0.114804"
     d="m 37.095205,82.086188 c -0.108768,-2.301981 -0.07744,-48.506143 0.03289,-48.506143 0.04954,0 0.185368,0.105292 0.301831,0.233983 0.327962,0.362393 2.288308,1.837337 3.488285,2.62455 4.291842,2.815546 8.974613,4.575466 13.620305,5.118902 0.816322,0.09549 1.67827,0.173619 1.915439,0.173619 h 0.431217 v 16.474312 16.474313 l -0.602718,0.0021 c -0.806312,0.0028 -2.724616,0.281508 -4.024278,0.584654 -4.515382,1.053209 -9.908989,3.971099 -14.155086,7.657765 l -0.930126,0.807581 z"
     id="path27" />
  <path
     style="fill:#1a1a1a;stroke-width:0.114804"
     d="m 65.610242,74.563792 c -1.927829,-0.26204 -4.157809,-1.874017 -4.827421,-3.489575 -0.147285,-0.355352 -0.35812,-0.669341 -0.474177,-0.706175 -0.497377,-0.157862 -0.639122,0.03351 -1.135407,1.532972 -0.265495,0.802158 -0.589335,1.742608 -0.719645,2.089889 l -0.236926,0.631419 -0.08511,-0.459214 c -0.04681,-0.252568 -0.08809,-7.655761 -0.09173,-16.451541 l -0.0066,-15.992327 5.711478,0.03463 c 6.384617,0.03871 6.030297,-0.0071 6.834468,0.883052 0.546115,0.604484 0.774899,1.072162 1.269783,2.595686 0.798865,2.459335 1.35022,4.634762 3.127891,12.341384 2.083575,9.032788 3.035878,12.296338 4.949571,16.962228 0.04674,0.113958 -1.355949,0.140404 -6.812939,0.128451 -3.779489,-0.0083 -7.155935,-0.05367 -7.503216,-0.100879 z"
     id="path28" />
  <path
     style="fill:#1a1a1a;stroke-width:0.114804"
     d="M 82.051467,76.546453 C 79.013703,69.40094 78.363549,67.284962 75.886891,56.483358 74.054232,48.490469 72.975918,44.509438 72.258821,43.088876 71.816528,42.212697 70.920763,41.250224 70.257401,40.938407 l -0.502093,-0.236011 0.2699,-0.777189 c 0.148445,-0.427454 0.615782,-1.78459 1.038528,-3.015858 1.452342,-4.23002 2.259657,-6.372036 2.499023,-6.63055 l 0.23977,-0.258952 0.283029,0.258952 c 0.411984,0.376936 1.204653,2.118478 1.68546,3.703059 1.685096,5.55351 3.058354,13.432121 5.853072,33.580045 0.416025,2.999243 0.964574,6.8402 1.218996,8.535459 0.254422,1.69526 0.44131,3.103566 0.415307,3.129569 -0.026,0.026 -0.56912,-1.180212 -1.206926,-2.680478 z"
     id="path29" />
  <path
     style="fill:#1a1a1a;stroke-width:0.114804"
     d="M 3.700632,116.12068 C 2.6210394,115.84892 1.631785,115.13809 0.96341072,114.15386 0.59459619,113.61076 0.47708944,113.30721 0.37980814,112.64626 0.23264967,111.64644 0.11804316,11.330435 0.25865643,6.6012054 L 0.3491124,3.5589108 0.73078877,2.739775 C 1.5926269,0.89013887 3.453064,-0.07838988 5.4564476,0.27963471 6.8276107,0.52467521 7.7533376,1.0676484 9.0694822,2.3988136 9.7009019,3.0374395 15.382144,9.0875093 21.694464,15.843413 c 15.615511,16.712855 15.792685,16.898225 17.338751,18.140805 3.324228,2.671701 7.946146,4.972891 12.108414,6.028617 2.68,0.67976 3.063996,0.709064 9.991273,0.762472 3.50438,0.02702 6.67365,0.0077 7.042824,-0.04286 l 0.671226,-0.09198 1.46613,-4.247732 c 2.091973,-6.060953 2.207199,-6.348217 2.751453,-6.859514 0.63482,-0.59638 0.945035,-0.574237 1.608297,0.114804 0.571728,0.593947 1.242017,2.002405 3.838138,8.064951 l 1.30278,3.042294 7.908813,0.03532 c 4.349847,0.01942 8.632076,0.0017 9.516063,-0.03949 l 1.60725,-0.07481 0.961153,-2.830599 c 1.327081,-3.908266 2.612231,-7.442836 2.861131,-7.869011 0.24414,-0.418013 0.87585,-0.873973 1.21085,-0.873973 0.13266,0 0.48915,0.262565 0.81936,0.603488 0.63295,0.653487 0.86949,1.148399 3.7719,7.891976 l 1.30939,3.042295 1.01951,0.08641 c 0.56073,0.04753 4.84247,0.07336 9.51497,0.0574 l 8.49547,-0.02901 0.25474,-0.746223 c 2.00828,-5.883039 3.39434,-9.739123 3.62717,-10.090957 0.15836,-0.239298 0.48415,-0.528197 0.72396,-0.641997 0.42231,-0.200399 0.44883,-0.20006 0.84257,0.01076 0.23586,0.126283 0.59932,0.506863 0.86571,0.906491 0.25329,0.379986 1.41143,2.902139 2.58308,5.625375 l 2.12391,4.936553 9.47412,0.02936 9.47412,0.02936 1.19376,-3.473466 c 2.14186,-6.232121 2.57173,-7.316021 3.09633,-7.807301 0.57864,-0.541881 0.90851,-0.551077 1.47304,-0.04106 0.64835,0.58575 1.03093,1.35467 3.24471,6.521369 l 2.03169,4.741743 8.48345,0.02901 c 4.66589,0.01596 8.94258,-0.0099 9.50375,-0.0574 l 1.0203,-0.08641 0.32591,-0.918429 c 0.17925,-0.505136 0.86397,-2.468277 1.52162,-4.362536 1.89777,-5.466335 2.01266,-5.722397 2.73557,-6.096225 0.48418,-0.250381 0.79505,-0.134301 1.37865,0.514802 0.54263,0.603545 1.04647,1.673164 3.62945,7.705101 1.27862,2.985942 1.3702,3.160848 1.69083,3.229618 0.18644,0.03999 3.28564,0.07882 6.8871,0.08629 l 6.54811,0.01358 1.71344,0.574018 c 0.9424,0.31571 1.80075,0.574018 1.90744,0.574018 0.14278,0 0.4272,-0.553197 1.07725,-2.095165 1.86431,-4.422386 2.09234,-4.856113 2.80567,-5.336825 0.21206,-0.142916 0.50422,-0.25985 0.64921,-0.25985 0.60714,0 0.93367,0.546495 4.21854,7.06042 0.98709,1.957401 1.89594,3.723361 2.01965,3.924356 0.21501,0.349317 0.46461,0.444255 5.65576,2.151249 2.98695,0.982192 5.59232,1.817406 5.78972,1.856032 0.35368,0.06921 0.36102,0.0613 0.50443,-0.543999 0.67049,-2.829815 1.66942,-5.034165 2.2813,-5.034165 0.37802,0 0.9494,0.65259 1.94453,2.220931 1.47936,2.331474 3.04798,4.458629 4.12627,5.595505 l 0.94958,1.001162 7.71809,2.549444 c 8.90539,2.941634 8.92353,2.948056 8.92353,3.159461 0,0.154151 -5.15912,1.894948 -21.61552,7.293533 l -5.71525,1.874903 -1.63218,2.566646 c -2.20944,3.474373 -2.96391,4.467232 -3.75099,4.9362 -1.2398,0.738719 -1.61198,0.46125 -3.07971,-2.295986 -0.52293,-0.982348 -1.01829,-1.842118 -1.10081,-1.910602 -0.11194,-0.09291 -1.6337,0.357744 -5.99484,1.77531 -9.02949,2.934986 -9.04438,2.939397 -10.19323,3.019992 l -1.01911,0.07149 -1.47962,4.305134 c -0.8138,2.367823 -1.66788,4.795919 -1.89795,5.395768 -0.65742,1.714012 -1.40497,2.297486 -2.23892,1.747489 -0.68787,-0.453659 -0.97791,-1.02474 -3.54679,-6.983569 l -1.8861,-4.375053 -1.09064,-0.07299 c -1.84815,-0.123689 -15.15407,-0.08802 -15.15407,0.04062 0,0.06314 -0.0904,0.114012 -0.20091,0.113046 -0.12962,-0.0011 -0.15387,-0.03168 -0.0683,-0.0861 0.0729,-0.04639 -0.15956,-0.0737 -0.51662,-0.06068 -0.35705,0.01302 -0.9405,0.02593 -1.29656,0.0287 l -0.6474,0.005 -0.63222,1.865558 c -0.34772,1.026057 -1.19295,3.439584 -1.87829,5.363393 -1.07073,3.005669 -1.30414,3.558928 -1.6588,3.932022 -0.76007,0.799572 -1.61149,0.491053 -2.34421,-0.849449 -0.18357,-0.335842 -1.27223,-2.78041 -2.41924,-5.432373 l -2.08546,-4.82175 h -9.50104 -9.50103 l -0.54816,1.60725 c -2.78714,8.171977 -3.29614,9.44703 -3.89485,9.756635 -0.59198,0.30612 -0.91391,0.225791 -1.48863,-0.371443 -0.56339,-0.585466 -0.95835,-1.425231 -3.80532,-8.090917 l -1.31048,-3.068262 -8.72507,0.01069 c -4.79879,0.0059 -9.05757,0.04339 -9.46394,0.08337 l -0.73887,0.07268 -0.65954,1.894259 c -3.0977,8.896795 -3.00884,8.666244 -3.55089,9.212987 -0.48327,0.487468 -0.8951,0.554405 -1.39253,0.226342 -0.69332,-0.457252 -0.90415,-0.874247 -3.58241,-7.085855 l -1.881,-4.362536 -9.45604,-0.02787 -9.456035,-0.02788 -1.29913,3.816392 c -1.983454,5.826703 -2.419387,6.94672 -2.902126,7.456264 -0.798699,0.843049 -1.663935,0.474535 -2.405812,-1.024666 -0.211841,-0.428091 -1.296196,-2.870643 -2.40968,-5.427893 L 80.686833,75.65552 79.835866,75.56909 c -0.468033,-0.04754 -3.841293,-0.07337 -7.496135,-0.0574 l -6.645168,0.02903 -1.932806,4.354841 c -1.063043,2.395163 -2.011546,4.433584 -2.107784,4.529821 -0.110963,0.110962 -0.21436,0.134778 -0.282617,0.0651 -0.128304,-0.130981 -0.796167,-2.149967 -2.025839,-6.124217 l -0.901817,-2.914638 -1.381963,0.07778 c -5.782249,0.325425 -10.780835,2.290466 -16.326663,6.418326 -1.977008,1.471523 -5.03495,4.532894 -20.319442,20.342227 C 10.085998,112.9743 8.0466721,115.02969 7.3877755,115.4205 6.358428,116.03102 4.6405111,116.35725 3.700672,116.12066 Z m 2.7162665,-0.97713 C 6.7890944,114.99543 7.344357,114.70337 7.650815,114.4945 L 8.2080116,114.11475 8.2046837,58.205411 8.2013558,2.2960715 7.6884637,1.9096852 C 6.7716038,1.2189708 5.8903511,0.93357161 4.6495447,0.9255124 3.3053248,0.91678151 2.752206,1.1495895 1.8988729,2.083272 1.4536415,2.5704262 1.2667093,2.895884 1.0810411,3.5071562 l -0.24068075,0.7923889 0.0410817,54.2187819 0.0410817,54.218783 0.31768485,0.60684 c 0.6314485,1.20619 1.4896523,1.89821 2.5965781,2.09375 0.7599081,0.13424 1.8021792,0.0154 2.5801118,-0.29415 z m 5.1321465,-4.61641 c 1.355134,-1.37334 6.128487,-6.29411 10.607453,-10.935041 4.478966,-4.640934 9.475677,-9.813132 11.103802,-11.493773 l 2.960227,-3.055712 V 58.691494 32.340373 L 28.735909,24.32124 C 18.551054,13.409032 9.8152243,4.0982827 9.3279253,3.6359856 L 8.9251192,3.2538463 8.8431414,10.983414 c -0.076338,7.197795 -0.00805,100.660266 0.074246,101.610116 0.02051,0.23674 0.066651,0.43047 0.1025357,0.43051 0.035884,4e-5 1.1739889,-1.12356 2.5291219,-2.4969 z M 87.052083,86.360416 c 0.133764,-0.142384 0.433587,-0.749408 0.666275,-1.348942 0.452475,-1.165822 3.263473,-9.265278 3.263473,-9.403188 0,-0.04533 -0.183507,-0.169919 -0.407795,-0.276875 -0.545263,-0.260017 -1.454919,-1.124105 -1.87631,-1.782317 C 87.93657,72.36017 86.786148,68.297126 84.954624,60.329277 82.396482,49.200348 81.684774,46.815962 79.09855,40.710084 c -1.149088,-2.712912 -1.317219,-2.769039 -0.808212,-0.269806 1.000772,4.913808 1.82483,10.144894 3.910791,24.825553 2.497216,17.574992 2.894498,19.68662 3.931862,20.898547 0.448853,0.524384 0.583622,0.55313 0.919092,0.196038 z m 30.019997,-0.05683 c 0.16632,-0.173641 0.38177,-0.505739 0.47879,-0.737997 0.28166,-0.674274 3.39469,-9.754797 3.39469,-9.902107 0,-0.03435 -0.21956,-0.198267 -0.48791,-0.364269 -0.6591,-0.40771 -1.29042,-1.026089 -1.70257,-1.667664 -0.89165,-1.387991 -1.68596,-4.21607 -4.12312,-14.679914 -2.35516,-10.111792 -2.96988,-12.176828 -5.1804,-17.402487 -1.01685,-2.403838 -1.28088,-2.924331 -1.41522,-2.789984 -0.0385,0.0385 0.16131,1.252465 0.44402,2.697702 1.01972,5.212828 1.88577,10.769094 3.85422,24.727394 2.14666,15.222013 2.66389,18.104147 3.51699,19.597417 0.24478,0.428463 0.66014,0.837619 0.85033,0.837619 0.0373,0 0.20385,-0.14207 0.37018,-0.31571 z m 30.06572,-0.0287 c 0.22334,-0.300147 1.67223,-4.221609 3.06834,-8.304558 0.44988,-1.315696 0.81796,-2.407442 0.81796,-2.426103 0,-0.01866 -0.2823,-0.172047 -0.62733,-0.340858 -0.65294,-0.31945 -1.37712,-1.043957 -1.85165,-1.852482 -0.65651,-1.118591 -1.76322,-5.145845 -3.60994,-13.13641 -1.85119,-8.009915 -3.07117,-12.550719 -4.11503,-15.316378 -0.48026,-1.272417 -2.47698,-5.994097 -2.64868,-6.263369 -0.0592,-0.09288 -0.13661,-0.139956 -0.17196,-0.104605 -0.0354,0.03535 0.19151,1.40289 0.50415,3.03897 1.12879,5.907269 1.69969,9.577697 3.85539,24.787373 2.32704,16.418683 2.75659,18.649185 3.81762,19.823615 0.45106,0.499269 0.64587,0.518485 0.96113,0.0948 z m 29.92624,0.07919 c 0.13703,-0.145868 0.46277,-0.830385 0.72387,-1.521148 0.50887,-1.346256 3.19992,-9.100501 3.19992,-9.220525 0,-0.03963 -0.2346,-0.196507 -0.52134,-0.348621 -0.67747,-0.359396 -1.67719,-1.445371 -2.03905,-2.21498 -0.73223,-1.557286 -1.70223,-5.113931 -3.46897,-12.719529 -2.6503,-11.409243 -3.25543,-13.445241 -5.74684,-19.335852 -0.916,-2.165737 -1.1966,-2.676267 -1.1966,-2.177094 0,0.101712 0.23031,1.384683 0.5118,2.851047 1.0388,5.411427 1.66594,9.444888 3.73166,24.000266 2.43471,17.155403 2.84769,19.325138 3.90817,20.532955 0.42994,0.489667 0.56056,0.512009 0.89738,0.153481 z m 30.06858,-0.119492 c 0.22376,-0.254834 0.54098,-0.962136 0.93968,-2.095166 0.76169,-2.16457 2.87926,-8.437934 2.87926,-8.529898 0,-0.03804 -0.23515,-0.193915 -0.52256,-0.346383 -0.72488,-0.384551 -1.58552,-1.366939 -2.05326,-2.343737 -0.67893,-1.417813 -1.74596,-5.332691 -3.33766,-12.245716 -1.83259,-7.959226 -2.70107,-11.275684 -3.78801,-14.46525 -1.06524,-3.125865 -3.1545,-7.996215 -3.24411,-7.562481 -0.0212,0.102717 0.19755,1.394257 0.48618,2.870089 0.89935,4.598804 1.71976,9.835062 3.55965,22.719469 2.40309,16.828475 2.89798,19.724419 3.62337,21.20268 0.3119,0.635631 0.78863,1.181101 1.03227,1.181101 0.0481,0 0.23942,-0.173118 0.42519,-0.384708 z M 38.272066,83.135891 c 4.31067,-3.734257 9.137191,-6.377411 13.756799,-7.533653 1.434596,-0.359065 3.531136,-0.692907 4.351483,-0.692907 h 0.7352 L 57.086462,58.236484 57.057376,41.563637 55.483261,41.420839 C 49.945232,40.918446 44.129487,38.61587 39.398956,35.052725 c -0.643151,-0.484437 -1.441501,-1.09916 -1.77411,-1.366052 -0.332609,-0.26689 -0.642579,-0.447434 -0.688822,-0.401206 -0.111027,0.110992 -0.185198,43.648047 -0.08123,47.679753 0.05076,1.968497 0.123506,3.128397 0.196194,3.128397 0.06353,0 0.613019,-0.430977 1.221076,-0.957726 z m 24.464479,-2.537919 c 1.255636,-2.787823 2.070072,-4.747039 2.070072,-4.979788 0,-0.170149 -0.183486,-0.298677 -0.750366,-0.525614 -0.923485,-0.369697 -1.490626,-0.718375 -2.496194,-1.534663 -0.428057,-0.347482 -0.807339,-0.60273 -0.842851,-0.567218 -0.08768,0.08768 0.867257,8.771776 1.004182,9.131917 0.06097,0.160365 0.149571,0.240239 0.201381,0.181549 0.05088,-0.05764 0.417082,-0.82542 0.813776,-1.706183 z M 83.631753,79.673578 C 83.573357,79.421067 82.824109,74.280782 81.966757,68.250724 81.109405,62.220666 80.17697,55.737135 79.89468,53.842876 77.797999,39.773484 75.80324,31.427933 74.218275,30.094272 c -0.402873,-0.338994 -0.657453,-0.284736 -0.981014,0.209083 -0.358424,0.547023 -3.727514,10.23432 -3.642667,10.473925 0.02665,0.07525 0.276483,0.247205 0.555192,0.382126 0.657015,0.318056 1.391466,1.145775 1.864082,2.100805 0.783916,1.584083 1.708981,4.927938 3.467576,12.534325 1.802575,7.796606 2.657553,11.09622 3.599417,13.891233 0.782236,2.321305 3.799498,9.635648 4.272829,10.358042 0.256463,0.391412 0.407649,0.190116 0.278063,-0.370233 z M 111.8298,67.332295 c -0.97739,-6.850903 -1.96385,-13.670235 -2.19212,-15.154071 -1.94301,-12.630041 -3.55514,-19.496778 -5.10683,-21.752085 -0.65964,-0.958747 -1.14266,-0.751715 -1.71113,0.733418 -0.66067,1.72601 -3.227618,9.273209 -3.227504,9.489337 7.6e-5,0.144889 0.191972,0.32893 0.556344,0.533574 1.95569,1.098389 2.65934,3.042253 5.41402,14.956479 2.69628,11.66168 3.27346,13.518843 6.65418,21.410866 1.14374,2.669962 1.30344,2.966069 1.35705,2.516211 0.0182,-0.152647 -0.76661,-5.882825 -1.74401,-12.733729 z m 30.99575,6.976394 c -0.41245,-2.858316 -1.19272,-8.322466 -1.73391,-12.142554 -2.76041,-19.484502 -4.34487,-27.443518 -6.1903,-31.09483 -0.63784,-1.261989 -1.11864,-1.547758 -1.57375,-0.935367 -0.38542,0.518616 -3.83017,10.358929 -3.72355,10.636759 0.0305,0.07942 0.25201,0.244701 0.4923,0.367288 0.68694,0.350452 1.61067,1.412092 2.0432,2.348234 0.727,1.573479 1.63966,4.933707 3.32693,12.248916 2.21822,9.617153 3.22251,13.255001 4.63475,16.788488 0.72918,1.824492 2.96543,7.036066 3.21496,7.492467 l 0.18829,0.344411 0.0355,-0.428437 c 0.0195,-0.235641 -0.30195,-2.76706 -0.71442,-5.625375 z m 30.81485,5.83266 c 0,-0.09006 -0.23472,-1.78198 -0.52161,-3.759817 -0.28689,-1.977837 -0.95873,-6.695763 -1.49298,-10.484281 -2.38999,-16.947935 -3.56729,-24.011924 -4.86986,-29.219767 -1.13957,-4.556168 -2.34486,-7.177141 -3.11178,-6.766701 -0.35611,0.190587 -0.54433,0.565552 -1.21824,2.427007 -0.93647,2.586682 -2.74655,7.795712 -2.83231,8.150805 -0.0676,0.280073 -0.0127,0.344732 0.6194,0.728704 1.96378,1.192929 2.61847,3.067628 5.63195,16.127086 1.54324,6.68792 2.7515,11.190524 3.67582,13.697952 0.52102,1.413362 3.10563,7.540283 3.72586,8.832249 0.21041,0.438297 0.39375,0.562511 0.39375,0.266763 z m 29.93661,-0.49637 c -0.0301,-0.363067 -0.31976,-2.442446 -0.64369,-4.620844 -0.32393,-2.178398 -1.0806,-7.447882 -1.6815,-11.709965 -2.55771,-18.141679 -3.95653,-25.758214 -5.58028,-30.38446 -0.4106,-1.169855 -1.16547,-2.680156 -1.48335,-2.967838 -0.37924,-0.343212 -0.74375,-0.142419 -1.09767,0.604687 -0.42061,0.88784 -3.58768,10.040873 -3.52884,10.198554 0.0256,0.06856 0.22278,0.208706 0.43822,0.311442 0.51664,0.246363 1.25781,0.924231 1.67747,1.534173 0.79973,1.162377 1.71757,4.28552 3.48919,11.872652 3.074,13.164773 3.51069,14.655921 6.11621,20.885165 1.56936,3.75201 2.1051,4.936554 2.23267,4.936554 0.0714,0 0.0952,-0.254912 0.0616,-0.66012 z M 60.528886,78.267336 c -0.121751,-1.599035 -0.514421,-4.973924 -0.587183,-5.046687 -0.140113,-0.140112 -0.311539,0.156764 -0.597426,1.034628 l -0.308486,0.947249 0.597157,1.875547 c 0.328436,1.031551 0.644023,1.998814 0.701303,2.149474 0.216852,0.570365 0.285419,0.232103 0.194635,-0.960211 z m -2.156479,-3.523933 c 0.07574,-0.09126 0.443997,-1.031803 0.818352,-2.090094 0.374354,-1.058293 0.727502,-1.971026 0.784774,-2.028298 0.170225,-0.170225 0.32679,0.0047 0.695239,0.776701 0.632862,1.326044 2.415029,2.721944 4.193247,3.284402 0.54101,0.171125 13.381459,0.296508 14.657764,0.143129 l 0.766532,-0.09212 -0.32646,-0.76388 C 78.428334,70.384984 77.147103,65.907979 75.022301,56.712965 73.332312,49.399593 72.135497,44.931375 71.515632,43.621087 71.359981,43.292069 71.02074,42.782152 70.761764,42.487939 c -0.86476,-0.98242 -0.439492,-0.924426 -7.078176,-0.965243 l -5.887378,-0.0362 0.0324,16.567912 c 0.01782,9.112351 0.07419,16.632489 0.125274,16.711417 0.121807,0.188202 0.249397,0.181366 0.418528,-0.02242 z m 51.832213,0.03887 c 0.0383,-0.03831 -0.11286,-0.4959 -0.33584,-1.016868 -0.52784,-1.233224 -1.53298,-4.165288 -2.17953,-6.357827 -0.65197,-2.210963 -1.37168,-5.107552 -2.75711,-11.096428 -1.72359,-7.450722 -2.69275,-11.055211 -3.37999,-12.570877 -0.3818,-0.842053 -1.15418,-1.733596 -1.730444,-1.997423 -0.356405,-0.16317 -1.488335,-0.18782 -10.016611,-0.218128 -5.28814,-0.01879 -9.614799,-0.01046 -9.614799,0.01853 0,0.02898 0.183126,0.480545 0.406947,1.00347 1.498117,3.500126 2.728564,7.822449 4.931482,17.323342 2.328779,10.043715 3.155856,12.833505 4.148497,13.993183 0.677983,0.79207 0.904728,0.865325 2.911859,0.940743 2.326173,0.08741 17.525249,0.06867 17.615539,-0.02171 z m 29.96596,-0.0022 c 0.0395,-0.03954 -0.18162,-0.711141 -0.49139,-1.492447 -1.52781,-3.853445 -2.5833,-7.61197 -4.67251,-16.638412 -1.87475,-8.099889 -2.61197,-10.858608 -3.37429,-12.62683 -0.52281,-1.21267 -0.8884,-1.726241 -1.53209,-2.152266 l -0.47019,-0.311193 h -9.61362 c -5.28749,0 -9.64439,0.03074 -9.68199,0.06832 -0.0376,0.03757 0.21487,0.774164 0.56104,1.636866 1.42848,3.559908 2.50435,7.430518 4.71152,16.950397 1.82264,7.861429 2.61056,10.785329 3.33039,12.358979 0.36526,0.798478 1.11919,1.753669 1.59911,2.025962 0.13024,0.0739 0.83091,0.16658 1.55704,0.205966 1.70194,0.09231 17.98225,0.06949 18.07698,-0.02534 z m 30.14052,0.08776 c 0,-0.02284 -0.25361,-0.655695 -0.56358,-1.406343 -1.49679,-3.62475 -2.47048,-7.09927 -4.88923,-17.446534 -1.81016,-7.743728 -2.74534,-11.175712 -3.39704,-12.46674 -0.44248,-0.876536 -1.15261,-1.648481 -1.6926,-1.839927 -0.33287,-0.118016 -2.41318,-0.149366 -9.91171,-0.149366 -5.21973,0 -9.51888,0.02847 -9.55368,0.06326 -0.0348,0.03479 0.16172,0.6077 0.43672,1.273136 1.28649,3.113066 2.58869,7.575951 4.08202,13.989886 3.02772,13.004245 3.81729,15.762069 4.84783,16.932837 0.71477,0.812014 0.97522,0.909871 2.61711,0.983275 1.59749,0.07142 18.02416,0.132043 18.02416,0.06652 z m 29.81913,-0.05243 c 0.10733,-0.06816 0.043,-0.326128 -0.26111,-1.047206 -1.4878,-3.52772 -2.80732,-8.175649 -4.87443,-17.170009 -1.0105,-4.396849 -2.17812,-9.050381 -2.71617,-10.825256 -0.5394,-1.779326 -0.94578,-2.645555 -1.5492,-3.302206 -0.89781,-0.977011 -0.0957,-0.907513 -10.91822,-0.945975 -5.28814,-0.01879 -9.6148,-0.01046 -9.6148,0.01853 0,0.02898 0.18444,0.483484 0.40986,1.010001 0.55544,1.297305 1.75843,4.84891 2.39262,7.063699 0.58465,2.04181 1.24159,4.713612 2.66217,10.82713 2.2376,9.629586 3.04687,12.31339 4.06143,13.468895 0.67098,0.764209 0.85865,0.816933 3.15971,0.887713 3.31792,0.102057 17.09209,0.113785 17.24814,0.01469 z m 13.0026,-16.614542 V 41.492337 l -6.36211,0.03328 c -3.49917,0.0183 -6.39444,0.06563 -6.43393,0.105167 -0.0395,0.03954 0.18231,0.711141 0.49289,1.492447 1.54285,3.881336 2.51107,7.329917 4.66958,16.632031 1.76788,7.618692 2.54202,10.568383 3.28286,12.508421 0.27097,0.709615 0.51049,1.102656 0.9828,1.612812 0.76301,0.824138 1.18273,0.985225 2.65039,1.017204 l 0.71752,0.01563 z m 3.0997,15.740469 c 10.41717,-3.393556 12.16918,-3.997756 12.16918,-4.196671 0,-0.111308 -0.23815,-0.712534 -0.52922,-1.336058 -1.21661,-2.6062 -1.75729,-4.265453 -3.77373,-11.580806 -1.73944,-6.310418 -3.28026,-10.676407 -4.28142,-12.131533 -0.51044,-0.741902 -1.10937,-1.228617 -2.03266,-1.651834 -0.99774,-0.457351 -3.73371,-1.35127 -3.83276,-1.252281 -0.10841,0.108339 -0.16451,22.676959 -0.07,28.159014 0.0595,3.451801 0.11712,4.729359 0.21165,4.693678 0.0714,-0.02696 1.03396,-0.343543 2.13895,-0.703509 z m 16.34603,0.513938 c 0.51781,-0.196869 1.21354,-0.936648 1.99159,-2.117666 1.13571,-1.723913 3.13065,-4.923548 3.13065,-5.021162 0,-0.04685 -0.38806,-0.353444 -0.86235,-0.681323 -1.55036,-1.071766 -2.00834,-1.982472 -4.64531,-9.237464 -2.51437,-6.917714 -3.37577,-8.947998 -5.76903,-13.597386 -1.4162,-2.751257 -1.69612,-3.208521 -1.69612,-2.770769 0,0.128262 0.31097,1.485518 0.69105,3.016127 0.82214,3.31086 1.54571,6.820599 3.10229,15.048224 2.02952,10.727394 2.86464,14.741253 3.16516,15.21279 0.17758,0.278653 0.43659,0.321805 0.89207,0.148629 z m -2.61396,-4.224155 c -0.17225,-0.868698 -1.66168,-8.699657 -2.48377,-13.058907 -1.74167,-9.23551 -2.55417,-12.850386 -3.95414,-17.592325 -0.88515,-2.998161 -1.39036,-4.438733 -1.62493,-4.633411 -0.20715,-0.171918 -0.65587,0.122285 -1.03447,0.678254 -0.41338,0.607028 -2.80437,6.257492 -2.79371,6.602188 0.002,0.0746 0.23084,0.279184 0.50785,0.454635 1.16891,0.740326 1.65121,1.307655 2.3557,2.770973 1.30203,2.704473 2.05716,4.898801 3.56979,10.373434 2.35583,8.526455 2.79223,9.878529 3.95457,12.252592 0.94928,1.938933 1.25813,2.468276 1.4401,2.468276 0.0757,0 0.10072,-0.125517 0.063,-0.315709 z m 20.47939,-7.477792 c 11.47658,-3.756681 13.34428,-4.393403 13.4016,-4.568798 0.0386,-0.11808 -9.33835,-3.307368 -13.61241,-4.629851 l -1.18663,-0.367172 -0.33785,0.323675 c -0.44284,0.424266 -0.82897,1.258251 -1.15638,2.497557 l -0.26542,1.004693 -0.73129,0.360234 c -0.87369,0.430385 -0.80226,0.485303 -1.50961,-1.160696 -1.19241,-2.774742 -1.83243,-3.939163 -2.56508,-4.666727 -0.69423,-0.689412 -0.73247,-0.709258 -2.59885,-1.34879 -2.21994,-0.760675 -10.98219,-3.64457 -11.07345,-3.64457 -0.14626,0 -0.0291,0.374231 0.52254,1.669068 1.01216,2.375816 2.25135,5.573083 3.66274,9.450281 0.75034,2.061242 1.57301,4.257781 1.82816,4.881198 0.90515,2.211523 1.61081,3.158342 2.86366,3.842338 l 0.61635,0.336491 1.33531,-0.439324 c 0.73443,-0.241629 5.5974,-1.834452 10.80661,-3.539607 z m -3.90332,-6.262936 c 0,-0.476789 -1.77524,-5.921633 -3.0904,-9.478577 -0.74651,-2.018993 -1.07883,-2.684506 -1.30427,-2.611987 -0.35422,0.113945 -1.57424,3.796704 -1.57483,4.753761 l -2.8e-4,0.476839 0.9262,0.434639 c 1.5551,0.729765 2.43772,1.919875 3.78092,5.098084 0.33356,0.789274 0.65621,1.498535 0.71701,1.576137 0.13657,0.174307 0.54565,-0.0123 0.54565,-0.248896 z m 0.80318,-2.044764 c 0.14159,-0.331495 0.43746,-0.849436 0.65749,-1.150979 l 0.40007,-0.54826 -0.85025,-1.001588 c -0.46763,-0.550874 -1.19441,-1.445765 -1.61507,-1.988648 -0.86308,-1.113846 -1.11747,-1.369319 -1.11747,-1.122198 0,0.278447 2.08219,6.414392 2.17669,6.414392 0.0501,0 0.20695,-0.271223 0.34854,-0.602719 z"
     id="path30" />
  <path
     style="fill:#1a1a1a;stroke-width:0.114804"
     d="M 86.327103,86.019867 C 85.254026,84.750276 84.709283,81.724114 81.90917,61.477313 80.848842,53.810387 79.659018,46.277031 78.859286,42.16701 78.637784,41.028652 78.47755,40.076273 78.503211,40.050612 c 0.02566,-0.02566 0.336773,0.642968 0.69136,1.485843 2.347374,5.579855 3.059357,8.059693 6.054808,21.088894 1.434371,6.239033 2.490035,9.874396 3.220059,11.088835 0.452498,0.752757 1.328108,1.584878 1.876299,1.783106 l 0.383248,0.138585 -0.953985,2.822527 c -1.924211,5.69311 -2.613104,7.511296 -2.951963,7.791072 -0.150168,0.123985 -0.227229,0.08831 -0.495934,-0.229607 z"
     id="path31" />
  <path
     style="fill:#1a1a1a;stroke-width:0.114804"
     d="M 92.235331,74.573012 C 90.86887,74.511052 90.767575,74.489675 90.3577,74.176757 89.029251,73.162559 88.17637,70.462814 85.584174,59.066438 83.659162,50.603279 82.235084,45.656162 80.71668,42.157205 l -0.188738,-0.434921 9.445976,0.03311 c 8.558519,0.03 9.478333,0.05106 9.790387,0.22422 0.377625,0.209541 0.925435,0.764465 1.284645,1.301335 0.7214,1.078195 1.80388,4.99541 3.8228,13.83383 1.66734,7.299269 2.47442,10.323724 3.73086,13.981052 0.34643,1.00843 0.78556,2.180499 0.97585,2.6046 0.19028,0.4241 0.34596,0.817937 0.34596,0.875193 0,0.112029 -15.210305,0.109785 -17.689089,-0.0026 z"
     id="path32" />
  <path
     style="fill:#1a1a1a;stroke-width:0.114804"
     d="m 61.821724,81.784757 c 0,-0.20019 -0.772011,-7.321634 -0.861823,-7.949922 l -0.06334,-0.443076 0.735675,0.585394 c 0.806166,0.641486 1.788762,1.196191 2.492287,1.406973 0.248866,0.07456 0.452484,0.20688 0.452484,0.29404 0,0.143715 -2.596419,6.112052 -2.707908,6.224616 -0.02606,0.02631 -0.04738,-0.0268 -0.04738,-0.118025 z"
     id="path33" />
  <path
     style="fill:#1a1a1a;stroke-width:0.114804"
     d="m 59.780437,76.762204 -0.484083,-1.579457 0.278309,-0.796828 c 0.178463,-0.510959 0.282115,-0.693862 0.288916,-0.50982 0.0058,0.157855 0.110901,1.214714 0.233482,2.348577 0.122582,1.133862 0.210407,2.074036 0.195167,2.089276 -0.01524,0.01524 -0.245546,-0.683047 -0.511791,-1.551748 z"
     id="path34" />
  <path
     style="fill:#1a1a1a;stroke-width:0.114804"
     d="m 112.02509,76.48788 c -2.93066,-6.916447 -3.68236,-9.299855 -5.65741,-17.938058 -2.21165,-9.673023 -3.45355,-14.296402 -4.19863,-15.630788 -0.47775,-0.8556 -1.23712,-1.659441 -1.87514,-1.984932 -0.25971,-0.132496 -0.472204,-0.27963 -0.472204,-0.326965 0,-0.109513 2.776984,-8.199438 3.174004,-9.246537 0.16358,-0.43142 0.41554,-0.921722 0.55991,-1.089559 0.25557,-0.297121 0.26857,-0.299648 0.49367,-0.09594 0.64487,0.583599 1.56192,2.944098 2.37943,6.124663 1.29879,5.052988 2.52339,12.271963 4.64107,27.358816 1.158,8.249861 2.16495,15.191467 2.26071,15.584585 0.0346,0.142069 0.0423,0.258308 0.0172,0.258308 -0.0251,0 -0.62032,-1.356117 -1.32263,-3.013594 z"
     id="path35" />
  <path
     style="fill:#1a1a1a;stroke-width:0.114804"
     d="m 116.37991,86.130871 c -0.38484,-0.40964 -0.79694,-1.421635 -1.11014,-2.726176 -0.56477,-2.352325 -1.19102,-6.396888 -3.04858,-19.688712 -1.50551,-10.772789 -2.56678,-17.557892 -3.44379,-22.017489 -0.18738,-0.952845 -0.32581,-1.747336 -0.30761,-1.765535 0.0783,-0.07832 1.9665,4.581564 2.53638,6.259604 1.11776,3.291334 1.91601,6.330747 3.6826,14.021911 1.83571,7.992156 2.85714,11.726323 3.5919,13.131394 0.48181,0.921367 1.26753,1.769309 1.91867,2.070625 0.25257,0.116875 0.47326,0.223912 0.49043,0.237861 0.0255,0.02069 -1.9525,5.869082 -3.01179,8.905194 -0.32721,0.937858 -0.54934,1.371958 -0.83374,1.629334 -0.21175,0.191631 -0.23221,0.189075 -0.46433,-0.05801 z"
     id="path36" />
  <path
     style="fill:#1a1a1a;stroke-width:0.114804"
     d="m 121.86399,74.575574 c -1.13469,-0.07914 -1.28734,-0.150601 -1.98933,-0.931383 -1.03232,-1.148193 -1.93518,-4.209802 -4.26505,-14.462949 -1.92538,-8.473035 -3.39539,-13.608761 -4.80586,-16.790023 l -0.29268,-0.66012 9.37888,0.0025 c 8.85103,0.0024 9.40498,0.01438 9.84284,0.213271 1.55243,0.705173 2.35487,3.049728 5.0355,14.712641 2.13892,9.306012 3.25974,13.29969 4.728,16.84663 0.22125,0.534493 0.36982,1.004286 0.33016,1.043983 -0.0924,0.09246 -16.66498,0.115917 -17.96246,0.02543 z"
     id="path37" />
  <path
     style="fill:#1a1a1a;stroke-width:0.114804"
     d="m 142.53253,77.689913 c -3.54368,-8.203605 -4.01109,-9.720497 -6.99829,-22.711461 -1.16944,-5.085766 -2.44485,-9.921054 -2.9489,-11.179794 -0.52589,-1.313255 -1.26823,-2.258288 -2.17665,-2.770968 l -0.60822,-0.343261 0.14667,-0.481196 c 0.24074,-0.789801 1.86945,-5.495662 2.66977,-7.713822 0.41008,-1.136555 0.84356,-2.167076 0.96329,-2.290047 0.21558,-0.221417 0.22043,-0.22101 0.50046,0.04207 0.69507,0.652978 1.65218,3.237584 2.53298,6.840123 1.33847,5.474424 2.60538,13.151204 4.93548,29.906331 0.47857,3.441237 1.07253,7.624539 1.31993,9.296226 0.24739,1.671687 0.43713,3.052102 0.42164,3.06759 -0.0155,0.01549 -0.35666,-0.732317 -0.75816,-1.661788 z"
     id="path38" />
  <path
     style="fill:#1a1a1a;stroke-width:0.114804"
     d="m 146.41064,86.076038 c -1.03232,-1.101424 -1.54346,-3.61133 -3.36128,-16.505073 -2.39595,-16.994439 -3.03947,-21.236816 -4.02923,-26.562267 -0.286,-1.53886 -0.49958,-2.818356 -0.47461,-2.843325 0.025,-0.02497 0.44633,0.898297 0.93635,2.051704 1.72521,4.06074 3.00058,8.370407 4.76546,16.103138 1.99528,8.742221 3.20677,13.324372 3.92305,14.837929 0.43175,0.912329 1.43921,2.010123 2.09279,2.280445 l 0.49595,0.205129 -0.32544,0.924347 c -0.179,0.50839 -0.71775,2.060902 -1.19721,3.450025 -1.35367,3.921873 -2.12075,5.951182 -2.3333,6.172752 -0.18561,0.193492 -0.2086,0.188133 -0.49253,-0.114804 z"
     id="path39" />
  <path
     style="fill:#1a1a1a;stroke-width:0.114804"
     d="m 152.05712,74.572595 c -1.31098,-0.07076 -1.60587,-0.195251 -2.23577,-0.943843 -0.97849,-1.162873 -1.85574,-4.183053 -4.2523,-14.639735 -1.9612,-8.557132 -3.10509,-12.58732 -4.59258,-16.180719 -0.21972,-0.530796 -0.3995,-0.992553 -0.3995,-1.026127 0,-0.03357 4.24917,-0.04588 9.4426,-0.02736 10.56323,0.03768 9.74065,-0.03099 10.56558,0.882107 0.54681,0.605246 0.77571,1.07372 1.2683,2.595686 0.79973,2.470906 1.3387,4.610441 3.28244,13.030205 1.90469,8.250574 3.1022,12.315543 4.79402,16.273407 0.0488,0.11416 -1.64894,0.139205 -8.3029,0.122478 -4.60033,-0.01156 -8.90678,-0.05031 -9.56989,-0.0861 z"
     id="path40" />
  <path
     style="fill:#1a1a1a;stroke-width:0.114804"
     d="m 172.78301,78.268785 c -3.86898,-8.977321 -4.29247,-10.353324 -7.4645,-24.253704 -1.23363,-5.405981 -2.43027,-9.691216 -3.04792,-10.914775 -0.43043,-0.852689 -1.36215,-1.858696 -1.99844,-2.157789 l -0.51039,-0.239907 1.01443,-2.958564 c 1.66511,-4.856274 2.53844,-7.190997 2.79248,-7.465247 l 0.23986,-0.258952 0.28305,0.258952 c 0.65061,0.595213 1.61269,3.163899 2.47857,6.617601 1.29577,5.16838 2.5392,12.664417 4.88677,29.460065 0.57365,4.104228 1.2245,8.669603 1.44631,10.145279 0.22182,1.475675 0.38306,2.70329 0.35832,2.728034 -0.0248,0.02474 -0.24009,-0.407705 -0.47854,-0.960993 z"
     id="path41" />
  <path
     style="fill:#1a1a1a;stroke-width:0.114804"
     d="m 176.31603,86.010365 c -1.00972,-1.150014 -1.52993,-3.917523 -3.82378,-20.342721 -1.75752,-12.584802 -2.73888,-18.942418 -3.62393,-23.477331 -0.21565,-1.104984 -0.38957,-2.060724 -0.38647,-2.123866 0.018,-0.367473 2.11092,4.808554 2.78524,6.888214 1.04498,3.222773 1.68046,5.689156 3.46088,13.432018 1.80584,7.853379 2.8349,11.622671 3.54174,12.972804 0.43931,0.839126 1.48286,1.921147 2.05097,2.126577 l 0.41814,0.151199 -1.23949,3.62546 c -1.67179,4.889963 -2.28554,6.523322 -2.57971,6.865313 l -0.24757,0.287816 z"
     id="path42" />
  <path
     style="fill:#1a1a1a;stroke-width:0.114804"
     d="m 182.47089,74.572182 c -1.60153,-0.06186 -1.69193,-0.07833 -2.08716,-0.38011 -1.36503,-1.042301 -2.0738,-3.281457 -4.8423,-15.297839 -2.00714,-8.711814 -3.32799,-13.3211 -4.70036,-16.402495 -0.1652,-0.370923 -0.30036,-0.695789 -0.30036,-0.721925 0,-0.02613 4.24916,-0.03262 9.44259,-0.01442 10.56443,0.03704 9.74046,-0.03179 10.56653,0.882576 0.57284,0.634061 0.89253,1.306965 1.45087,3.053849 0.55388,1.732919 1.99462,7.521801 3.34246,13.429941 1.5477,6.78423 3.02943,11.859114 4.2869,14.682518 0.1652,0.370924 0.30036,0.71964 0.30036,0.774924 0,0.107816 -14.63897,0.101928 -17.45953,-0.007 z"
     id="path43" />
  <path
     style="fill:#1a1a1a;stroke-width:0.114804"
     d="m 202.63119,77.919034 c -3.75694,-8.769703 -4.1419,-10.023251 -7.23501,-23.559542 -1.39451,-6.102773 -2.56694,-10.26047 -3.22935,-11.452001 -0.48217,-0.867323 -1.38146,-1.794653 -1.93423,-1.994537 -0.22269,-0.08053 -0.40489,-0.205937 -0.40489,-0.278693 0,-0.133237 2.74261,-8.145367 3.21243,-9.38463 0.13881,-0.366169 0.37097,-0.803614 0.51589,-0.972099 0.22625,-0.263025 0.28961,-0.284673 0.44813,-0.153112 0.53951,0.447756 1.44324,2.597331 2.12854,5.062875 1.50632,5.41937 2.70048,12.445881 5.46134,32.134949 0.6677,4.761691 1.3395,9.434727 1.49288,10.384524 0.15338,0.949798 0.26537,1.740409 0.24887,1.756914 -0.0165,0.0165 -0.33358,-0.678586 -0.7046,-1.544648 z"
     id="path44" />
  <path
     style="fill:#1a1a1a;stroke-width:0.114804"
     d="m 206.39223,86.131209 c -0.13008,-0.141975 -0.35086,-0.485835 -0.49062,-0.764132 -0.79919,-1.591324 -1.25592,-4.338525 -4.12881,-24.834946 -1.07954,-7.701901 -2.07808,-14.007708 -2.92198,-18.452261 -0.22134,-1.165728 -0.38884,-2.1331 -0.37222,-2.149716 0.0469,-0.0469 1.49257,3.42091 2.06693,4.958043 1.14371,3.060905 2.44639,7.829205 3.92049,14.350447 1.83936,8.137056 2.97014,12.34932 3.73575,13.915978 0.52692,1.078221 1.31071,1.954098 2.03435,2.273368 0.40203,0.177376 0.4745,0.256117 0.41492,0.450845 -0.3295,1.076863 -3.26182,9.49683 -3.40071,9.764901 -0.0982,0.189575 -0.27826,0.434891 -0.40009,0.545146 -0.21176,0.191637 -0.23192,0.189098 -0.45801,-0.05767 z"
     id="path45" />
  <path
     style="fill:#1a1a1a;stroke-width:0.114804"
     d="m 211.46818,74.6233 c -0.0631,-0.02106 -0.25993,-0.0704 -0.4373,-0.10963 -0.41136,-0.09099 -1.27548,-0.884734 -1.63961,-1.506062 -0.6789,-1.158464 -1.74923,-5.014793 -3.49159,-12.579954 -1.5277,-6.633146 -2.13822,-9.108441 -2.81336,-11.406528 -0.64467,-2.194364 -1.68822,-5.266949 -2.13302,-6.280384 -0.1895,-0.431751 -0.3133,-0.835546 -0.27512,-0.897322 0.0438,-0.07094 2.30876,-0.112321 6.14723,-0.112321 h 6.07782 v 16.474312 16.474313 l -0.66012,-0.0091 c -0.36307,-0.005 -0.71179,-0.0263 -0.77493,-0.04736 z"
     id="path46" />
  <path
     style="fill:#1a1a1a;stroke-width:0.114804"
     d="m 214.12039,73.963415 c -0.0409,-0.204544 -0.0707,-7.485316 -0.0663,-16.179493 l 0.008,-15.807596 0.59726,0.177111 c 1.06531,0.315908 2.65836,0.920314 3.36231,1.275668 0.97655,0.492961 1.57623,1.201911 2.28878,2.705811 1.15832,2.444761 2.07038,5.243909 3.90763,11.992609 1.42804,5.245544 2.4608,8.403362 3.33898,10.209434 0.35129,0.722468 0.59462,1.35564 0.54073,1.407048 -0.0882,0.08415 -13.66871,4.591306 -13.83404,4.591306 -0.038,0 -0.10254,-0.167353 -0.14344,-0.371898 z"
     id="path47" />
  <path
     style="fill:#1a1a1a;stroke-width:0.114804"
     d="m 228.71391,68.048926 c -1.27693,-2.634777 -1.55013,-3.487082 -4.20402,-13.115416 -1.25545,-4.554756 -2.3286,-7.614963 -3.4731,-9.90391 -0.6075,-1.214979 -1.12477,-1.8145 -2.10847,-2.443767 l -0.6256,-0.400189 0.26941,-0.715188 c 1.12892,-2.996876 2.35774,-5.662989 2.80909,-6.094729 l 0.34308,-0.328184 0.16913,0.328184 c 0.19774,0.383703 1.06264,3.016699 1.55968,4.748122 1.47631,5.142576 2.19024,8.425523 4.369,20.090625 0.63094,3.378095 1.3037,6.912517 1.49501,7.854271 0.19131,0.941755 0.33093,1.729194 0.31026,1.749864 -0.0207,0.02067 -0.43173,-0.775688 -0.91347,-1.769683 z"
     id="path48" />
  <path
     style="fill:#1a1a1a;stroke-width:0.114804"
     d="m 231.8537,74.120434 c -0.27249,-0.509141 -1.64712,-7.22506 -3.33155,-16.276585 -1.35624,-7.287951 -2.07113,-10.739976 -2.93003,-14.148434 -0.21568,-0.855879 -0.37034,-1.57794 -0.3437,-1.604579 0.0266,-0.02664 0.81967,1.511019 1.76229,3.417019 1.86619,3.773479 3.08897,6.732345 5.01017,12.123538 2.55621,7.173105 3.2108,8.427452 4.90411,9.397402 0.23629,0.135354 0.43003,0.299737 0.43051,0.365295 0.002,0.217292 -3.5628,5.727603 -3.99487,6.175761 -0.71033,0.736783 -1.29329,0.949777 -1.50693,0.550583 z"
     id="path49" />
  <path
     style="fill:#1a1a1a;stroke-width:0.114804"
     d="m 237.73481,66.171938 c -1.59856,-0.922922 -2.21278,-2.09394 -4.56999,-8.71275 -1.32048,-3.707785 -2.31633,-6.300477 -3.29824,-8.586993 -0.44191,-1.029041 -0.77858,-1.895872 -0.74816,-1.926292 0.0722,-0.07219 11.84198,3.816818 12.38382,4.091904 0.54231,0.275327 1.38536,1.221737 1.88642,2.117714 0.21993,0.393283 0.70257,1.441893 1.07252,2.330243 1.10403,2.65107 1.16684,2.708329 2.28468,2.082618 0.36071,-0.201911 0.66796,-0.377162 0.68276,-0.389447 0.0148,-0.01229 0.18534,-0.55557 0.37895,-1.2073 0.40181,-1.352523 0.65742,-1.902176 1.05872,-2.276601 l 0.28149,-0.262645 3.20249,1.044818 c 5.10809,1.666526 10.88537,3.581837 10.99655,3.645631 0.1697,0.09737 -0.89964,0.460997 -13.13243,4.465681 -6.47205,2.118773 -11.7951,3.868321 -11.829,3.887884 -0.0339,0.01956 -0.32666,-0.117447 -0.65058,-0.304465 z"
     id="path50" />
  <path
     style="fill:#1a1a1a;stroke-width:0.114804"
     d="m 245.56553,55.191818 c -0.76908,-1.895988 -1.45072,-3.183376 -2.12769,-4.018526 -0.49853,-0.615007 -0.72873,-0.787808 -1.60586,-1.205437 -1.00948,-0.480647 -1.02396,-0.493399 -1.0277,-0.905186 -0.006,-0.695973 1.0888,-4.113102 1.37481,-4.289865 0.14017,-0.08663 0.3967,0.530125 1.59651,3.83829 0.92726,2.556668 2.53547,7.514624 2.53547,7.816618 0,0.385028 -0.26873,-0.06044 -0.74554,-1.235894 z"
     id="path51" />
  <path
     style="fill:#1a1a1a;stroke-width:0.114804"
     d=""
     id="path52" />
  <path
     style="fill:#4d4d4d;stroke-width:0.114804"
     d="m 246.16026,52.050348 c -0.43023,-1.331803 -0.76488,-2.438816 -0.74367,-2.460029 0.0212,-0.02121 0.41063,0.436149 0.86536,1.01636 0.45473,0.580211 1.03608,1.291889 1.29188,1.581508 l 0.4651,0.526579 -0.40309,0.669399 c -0.2217,0.368169 -0.43313,0.764063 -0.46985,0.879764 -0.0367,0.115702 -0.10204,0.209807 -0.14514,0.209122 -0.0431,-6.84e-4 -0.43037,-1.0909 -0.86059,-2.422703 z"
     id="path53" />
  <path
     style="fill:#4d4d4d;stroke-width:0.114804"
     d="M 3.6082016,115.96683 C 2.4652731,115.65866 1.2908516,114.657 0.72742949,113.50981 L 0.46069775,112.96672 0.37063802,85.700867 C 0.32110516,70.70465 0.29544042,46.139556 0.31360526,31.111768 L 0.34663224,3.7885179 0.70898765,3.0189873 C 1.1889705,1.9996523 1.9705614,1.1804933 2.8995126,0.72317217 3.547338,0.40424877 3.7608428,0.35740683 4.5762188,0.35531086 5.7546027,0.35228174 6.8041292,0.69017767 7.7206958,1.3676778 8.486679,1.9338709 10.189736,3.7068109 18.427273,12.513589 c 20.923204,22.369068 19.721621,21.145739 22.672406,23.082743 3.334381,2.188811 6.886153,3.754026 10.547707,4.648227 1.994191,0.487007 2.963764,0.5515 9.428115,0.627127 6.096526,0.07132 7.709312,0.01225 7.88029,-0.288623 0.05382,-0.09471 0.774551,-2.135347 1.601621,-4.534741 1.883198,-5.463306 2.064434,-5.904509 2.638454,-6.423102 0.248208,-0.224241 0.528482,-0.407711 0.622831,-0.407711 0.09435,0 0.380377,0.188667 0.635616,0.419262 0.595198,0.537725 1.220192,1.799515 3.488548,7.04297 l 1.763101,4.075527 0.615278,0.07475 c 0.785355,0.09541 15.836214,0.09307 17.418833,-0.0027 l 1.190269,-0.07203 1.062388,-3.099696 c 0.58431,-1.704833 1.42917,-4.107098 1.87746,-5.338366 0.72215,-1.98347 0.86728,-2.287747 1.2731,-2.669183 0.25192,-0.236783 0.53869,-0.430514 0.63726,-0.430514 0.0986,0 0.41637,0.218607 0.70624,0.485792 0.64589,0.595359 1.20104,1.714247 3.48994,7.033842 0.89656,2.083685 1.70341,3.866011 1.793,3.960724 0.14106,0.149133 1.24966,0.177729 8.27454,0.213439 7.93396,0.04033 10.93754,-0.02057 10.93754,-0.221783 0,-0.147849 2.209,-6.528641 3.00764,-8.687718 0.72836,-1.969101 0.93661,-2.336421 1.48558,-2.620299 0.98918,-0.511529 1.53746,0.416601 4.93173,8.348586 l 1.30919,3.059413 1.49244,0.07552 c 0.82085,0.04154 5.13021,0.05967 9.57636,0.04028 l 8.08391,-0.03524 0.95302,-2.755286 c 2.47452,-7.154172 2.83501,-8.044542 3.47503,-8.583073 0.20537,-0.172812 0.44808,-0.314204 0.53937,-0.314204 0.0913,0 0.38773,0.204429 0.6588,0.454285 0.62898,0.579784 1.02753,1.384754 3.35605,6.77834 l 1.8586,4.305134 0.9035,0.09056 c 0.49693,0.04981 4.76338,0.07564 9.48099,0.0574 7.44706,-0.02879 8.59874,-0.05585 8.73872,-0.205364 0.0887,-0.09471 0.8721,-2.212839 1.74095,-4.706947 1.88041,-5.397903 2.22867,-6.218189 2.78631,-6.562825 0.39151,-0.241967 0.40814,-0.242813 0.78488,-0.03992 0.75828,0.408357 1.36291,1.584598 4.12001,8.015001 0.61729,1.439731 1.23345,2.782933 1.36922,2.984893 0.24116,0.358727 0.27194,0.368892 1.33352,0.440454 0.59766,0.04029 3.66585,0.07903 6.81819,0.0861 l 5.73154,0.01285 1.77252,0.581267 c 0.97487,0.319697 1.842,0.554602 1.92693,0.52201 0.20197,-0.0775 0.531,-0.741768 1.54166,-3.11234 1.18812,-2.786824 1.62964,-3.621146 2.17897,-4.117432 0.69971,-0.632145 0.95833,-0.561652 1.62783,0.443718 0.29433,0.441994 1.60136,2.89592 2.90449,5.45317 1.30315,2.557249 2.43197,4.712876 2.50848,4.790281 0.2157,0.218198 2.49485,1.023877 7.22771,2.554998 2.38479,0.771496 4.40592,1.375877 4.49142,1.34307 0.0855,-0.03281 0.24703,-0.438344 0.35898,-0.901192 0.26088,-1.078616 0.91599,-2.975245 1.26013,-3.648179 0.27624,-0.5402 0.68474,-1.039282 0.85065,-1.039282 0.27933,0 0.84472,0.681441 1.98876,2.396962 1.68186,2.521976 2.95018,4.218014 4.04542,5.409681 l 0.89686,0.97583 8.04988,2.664854 c 4.42744,1.46567 8.14757,2.736284 8.26696,2.823587 0.19716,0.144174 0.0971,0.201852 -1.09147,0.628857 -1.11325,0.399959 -8.70906,2.924516 -22.66202,7.531993 l -3.2145,1.061476 -0.59236,0.910474 c -3.79307,5.830055 -4.08967,6.224632 -5.03345,6.695977 -0.96165,0.480273 -1.31138,0.159948 -2.80342,-2.567761 -0.46871,-0.856876 -0.92014,-1.614346 -1.00318,-1.683266 -0.20427,-0.169529 -1.01589,0.05765 -6.25178,1.749962 -8.61588,2.784763 -9.24813,2.967679 -10.26818,2.97066 -0.31942,9.33e-4 -0.6605,0.06627 -0.75796,0.145201 -0.0974,0.07893 -0.68126,1.61586 -1.29737,3.415406 -2.29513,6.703671 -2.54761,7.329901 -3.16464,7.849091 -0.50649,0.42619 -0.86677,0.39031 -1.36763,-0.136202 -0.50463,-0.530478 -1.07456,-1.685427 -2.82371,-5.722133 -0.73435,-1.694765 -1.55901,-3.598006 -1.83257,-4.229425 l -0.49738,-1.148036 -1.35861,-0.09081 c -0.74724,-0.04995 -4.40665,-0.06724 -8.13203,-0.03844 -3.72537,0.02881 -7.43209,0.05357 -8.23715,0.05502 -0.95088,0.0017 -1.46375,0.0452 -1.46375,0.124079 0,0.06679 -0.62624,1.916876 -1.39165,4.111313 -2.18308,6.258957 -2.45073,6.885479 -3.09623,7.247785 -0.62185,0.34904 -1.35784,-0.203425 -1.96956,-1.478446 -0.19691,-0.410423 -1.24636,-2.786857 -2.33212,-5.280964 l -1.9741,-4.534742 h -9.61308 -9.61308 l -1.3077,3.788518 c -0.71923,2.083685 -1.49575,4.279303 -1.7256,4.879152 -1.06564,2.781112 -1.57076,3.238952 -2.57369,2.332859 -0.59118,-0.534102 -1.06498,-1.501644 -3.41917,-6.982404 l -1.82456,-4.247732 -9.42739,0.0028 c -8.15831,0.0025 -9.44897,0.02563 -9.58768,0.172205 -0.0882,0.09315 -0.87073,2.210005 -1.73904,4.704113 -1.78477,5.126533 -2.15287,6.012315 -2.68423,6.459422 -0.47875,0.402851 -0.82713,0.396895 -1.30458,-0.0223 -0.50114,-0.440009 -1.00324,-1.469706 -3.30687,-6.781529 l -1.91683,-4.419937 -1.01785,-0.08641 c -0.55982,-0.04753 -4.85951,-0.07336 -9.55486,-0.0574 l -8.53701,0.02901 -1.421189,4.132929 c -1.905847,5.542352 -2.303724,6.544559 -2.811785,7.082568 -0.519495,0.550115 -0.867436,0.56556 -1.440824,0.06395 -0.506744,-0.443305 -0.816097,-1.079072 -3.309803,-6.802111 -0.990464,-2.273111 -1.875983,-4.210421 -1.967821,-4.305134 -0.143852,-0.148359 -1.092482,-0.177147 -6.850216,-0.207883 -3.675783,-0.01962 -7.039545,0.0062 -7.475027,0.0574 l -0.791786,0.09308 -1.576036,3.526826 c -2.024052,4.529389 -2.371481,5.255647 -2.514213,5.255647 -0.105401,0 -1.070913,-2.875059 -2.448161,-7.290027 l -0.50138,-1.60725 -1.256292,0.02752 c -2.471583,0.05414 -5.579221,0.664283 -8.029704,1.57653 -2.663185,0.991431 -5.832491,2.774344 -8.432886,4.743969 -2.081119,1.576309 -6.176487,5.658994 -20.522173,20.458614 -10.7072221,11.04603 -12.6211957,12.94689 -13.3964943,13.30477 -0.5520966,0.25484 -2.0278665,0.59402 -2.5180421,0.57871 -0.136515,-0.004 -0.4843362,-0.0714 -0.772936,-0.14923 z M 6.16688,115.32189 c 0.4058427,-0.12536 1.0570546,-0.4342 1.4471375,-0.68632 L 8.323259,114.17716 V 58.208635 2.2401099 L 7.8353438,1.8804328 C 6.8604662,1.161781 6.1904419,0.93105157 4.9359175,0.88198718 4.2844232,0.85650728 3.5774143,0.89356439 3.3024544,0.96760341 2.5888345,1.1597613 1.554455,2.1625828 1.1366629,3.0673188 l -0.33303789,0.7211991 0.001297,54.4742951 0.001297,54.474297 0.39163899,0.72471 c 0.4583561,0.84816 1.3047783,1.65518 1.9907621,1.89808 0.7128464,0.25242 2.0950756,0.23477 2.978259,-0.038 z m 7.470174,-6.80381 c 2.491155,-2.54147 8.617375,-8.855101 13.613824,-14.030301 l 9.084453,-9.409454 V 58.686268 32.294212 L 34.173746,29.980936 C 32.984875,28.708634 29.357264,24.826273 26.112389,21.353465 10.532854,4.6795584 8.9736331,3.0424442 8.8194874,3.1966673 8.7114085,3.3048004 8.7285222,112.18392 8.8367087,112.76061 c 0.039035,0.20807 0.1159727,0.37831 0.1709731,0.37831 0.055,0 2.1382182,-2.07938 4.6293722,-4.62084 z M 87.045069,86.475791 c 0.467828,-0.511638 0.622989,-0.908503 2.742477,-7.014589 0.719999,-2.074264 1.309089,-3.812934 1.309089,-3.863712 0,-0.05078 -0.223875,-0.223524 -0.497501,-0.383879 C 89.757883,74.720606 88.764545,73.554667 88.362038,72.587802 87.651061,70.879958 86.637409,67.071614 84.839502,59.353447 83.106949,51.91584 82.423104,49.337136 81.353584,46.208438 80.332678,43.22195 78.344131,38.516599 78.102907,38.516599 c -0.245623,0 -0.197686,0.49672 0.295847,3.065525 0.965143,5.02351 1.453295,8.136991 3.398296,21.674645 2.94123,20.471652 3.202979,21.84673 4.397928,23.104219 0.419946,0.441924 0.536578,0.457675 0.850091,0.114803 z M 117.18033,86.29754 c 0.42095,-0.465947 0.71907,-1.257215 2.86334,-7.599691 l 1.02853,-3.042295 -0.37093,-0.287009 c -0.98461,-0.761854 -1.71089,-1.553663 -2.08693,-2.275212 -0.77436,-1.485869 -1.61513,-4.52522 -3.64206,-13.165868 -2.63522,-11.233725 -3.3221,-13.541188 -5.62165,-18.885188 -0.85059,-1.976715 -1.07852,-2.410875 -1.26571,-2.410875 -0.19421,0 -0.12656,0.574338 0.4069,3.454444 1.0707,5.780617 1.59234,9.145277 3.73614,24.098414 2.04808,14.285504 2.51965,17.085746 3.17514,18.854148 0.28301,0.763523 0.97764,1.695691 1.2636,1.695691 0.0656,0 0.2967,-0.196452 0.51363,-0.436559 z m 59.87074,0.178251 c 0.46786,-0.511668 0.59852,-0.847147 2.80067,-7.191255 0.68799,-1.982004 1.2509,-3.643182 1.2509,-3.691507 0,-0.04832 -0.22388,-0.219063 -0.49751,-0.379418 -0.83742,-0.490764 -1.83475,-1.659269 -2.23276,-2.615984 -0.72854,-1.751238 -1.71904,-5.517945 -3.98083,-15.138439 -1.12935,-4.80363 -2.00057,-8.104653 -2.72696,-10.332321 -0.96283,-2.952707 -3.17971,-8.333439 -3.52009,-8.543806 -0.26306,-0.162581 -0.24261,0.265517 0.1012,2.118449 1.24575,6.713812 1.68834,9.539639 3.83837,24.506919 2.66253,18.535024 2.92859,19.90204 4.11692,21.152559 0.41994,0.441924 0.53657,0.457675 0.85009,0.114803 z m 30.02686,-0.0574 c 0.16624,-0.17364 0.4394,-0.625679 0.60704,-1.004531 0.29699,-0.671217 3.3814,-9.622211 3.3814,-9.812887 0,-0.05269 -0.22029,-0.2249 -0.48952,-0.382685 -0.6915,-0.405243 -1.61014,-1.416265 -2.01118,-2.213428 -0.74977,-1.490374 -1.61149,-4.664404 -3.87765,-14.282831 -1.45827,-6.189472 -2.29472,-9.366271 -3.14363,-11.939571 -1.12294,-3.4039 -3.22671,-8.291816 -3.50823,-8.151054 -0.15399,0.077 -0.11906,0.350609 0.40302,3.157098 0.97736,5.253817 1.59948,9.264883 3.83942,24.753926 2.49874,17.278614 2.75731,18.580278 3.94836,19.875963 0.15962,0.173641 0.34838,0.31571 0.41947,0.31571 0.0711,0 0.26527,-0.142069 0.4315,-0.31571 z M 147.26579,86.19469 c 0.29197,-0.501832 1.44255,-3.583079 2.76891,-7.415093 0.60731,-1.754583 1.1042,-3.211846 1.1042,-3.238361 0,-0.02652 -0.24539,-0.1878 -0.54531,-0.358412 -1.05627,-0.600854 -1.84156,-1.515371 -2.30505,-2.684368 -0.60137,-1.516719 -1.63658,-5.428705 -3.17471,-11.996973 -1.86896,-7.980976 -3.10517,-12.647684 -3.9991,-15.09667 -0.46327,-1.269124 -2.37275,-5.865052 -2.7177,-6.541223 -0.12958,-0.253987 -0.28621,-0.461795 -0.34806,-0.461795 -0.19736,0 -0.12524,0.591849 0.45648,3.745929 1.10425,5.987349 1.47181,8.359106 3.68054,23.749527 2.50173,17.432093 2.81619,19.066528 3.90738,20.30932 0.46735,0.532288 0.85813,0.528328 1.17242,-0.01188 z M 38.401795,83.168897 c 4.281739,-3.636394 8.861416,-6.178922 13.202411,-7.329667 1.62429,-0.430579 3.944296,-0.815042 4.918479,-0.815072 l 0.72815,-2.3e-5 -0.03933,-16.708122 c -0.0346,-14.697998 -0.06004,-16.721217 -0.211532,-16.816966 -0.09471,-0.05986 -0.36329,-0.109635 -0.596839,-0.110601 -0.740321,-0.0031 -3.086238,-0.344048 -4.454518,-0.647474 -4.629378,-1.026593 -8.996172,-3.118143 -13.151083,-6.298932 -1.586777,-1.214758 -1.842644,-1.372972 -1.947088,-1.203976 -0.04006,0.06482 -0.09991,10.281041 -0.132995,22.702716 -0.05568,20.902427 0.0027,27.753837 0.239755,28.137394 0.111976,0.181179 0.299861,0.06292 1.444589,-0.909277 z m 24.143358,-1.920836 c 0.704981,-1.498772 2.078757,-4.680481 2.255514,-5.223838 0.183837,-0.565126 0.09505,-0.669317 -1.002418,-1.176381 -0.471528,-0.217859 -1.316085,-0.737686 -1.876794,-1.15517 -0.571034,-0.425173 -1.090562,-0.731784 -1.18109,-0.697045 -0.112869,0.04331 -0.146811,0.194117 -0.112522,0.499946 0.02701,0.240861 0.152921,1.47116 0.279815,2.733999 0.284738,2.833693 0.66605,5.904525 0.750056,6.040449 0.169869,0.274853 0.404605,0.0045 0.887439,-1.02196 z m 81.075737,-0.945583 c 0.11005,-0.178061 -0.17442,-2.361415 -1.73474,-13.314593 -2.6376,-18.515469 -3.81944,-25.606417 -5.11837,-30.709956 -0.94684,-3.720157 -1.93643,-6.059225 -2.74697,-6.493019 -0.38513,-0.206115 -0.72445,0.127521 -1.139,1.119939 -0.95049,2.275411 -3.32598,9.235621 -3.32598,9.74515 0,0.194855 0.13147,0.357589 0.45274,0.560398 0.61513,0.388309 1.21609,1.006336 1.66476,1.712017 0.87649,1.378609 1.5455,3.74514 3.96345,14.020158 2.69058,11.433617 3.38623,13.614947 6.85557,21.496969 0.47942,1.089199 0.91313,1.980362 0.96382,1.980362 0.0507,0 0.1248,-0.05284 0.16472,-0.117425 z m 30.08526,-0.03512 c 0.11914,-0.310507 -4.04718,-28.951345 -5.07139,-34.862543 -1.68154,-9.704918 -3.50231,-15.613286 -4.81153,-15.613286 -0.54726,0 -0.79587,0.504254 -2.18197,4.425773 -1.3577,3.841173 -2.1217,6.154251 -2.1217,6.423661 0,0.189071 0.159,0.364604 0.56796,0.627035 1.97774,1.269112 2.55725,2.89 5.46039,15.272764 2.04492,8.72215 3.14314,12.705856 4.30492,15.615653 0.81937,2.052204 2.98872,7.138539 3.32966,7.806818 0.2389,0.46829 0.42025,0.573611 0.52366,0.304125 z m 29.98977,-0.154552 c 0.0537,-0.3616 -3.34816,-24.090013 -4.40807,-30.747268 -1.54211,-9.685967 -2.80651,-15.148142 -4.16585,-17.996228 -0.53069,-1.111908 -0.96914,-1.692584 -1.27802,-1.692584 -0.40311,0 -0.86288,0.774428 -1.48239,2.496897 -1.16408,3.236627 -2.87829,8.311508 -2.87829,8.521144 0,0.126706 0.19477,0.325067 0.48791,0.496911 0.83963,0.492199 1.7241,1.530335 2.12234,2.491083 0.73394,1.770607 1.617,5.067521 3.47471,12.972804 2.2641,9.634647 3.04027,12.362389 4.69472,16.499177 0.8797,2.199573 2.22586,5.374002 2.73081,6.439592 0.38673,0.816134 0.63118,0.996641 0.70213,0.518472 z M 83.749206,80.017335 c 0,-0.158271 -0.08013,-0.816956 -0.178074,-1.463746 -0.09794,-0.646789 -0.951454,-6.548788 -1.896698,-13.115553 -2.303681,-16.004047 -2.773106,-18.95695 -3.89646,-24.510562 -1.224191,-6.052121 -2.311587,-9.559127 -3.320087,-10.707746 -0.763049,-0.869064 -1.142772,-0.535549 -2.000726,1.757263 -1.266322,3.384148 -2.939117,8.356164 -2.942095,8.744737 -8.52e-4,0.111188 0.216869,0.324042 0.502927,0.491682 0.277437,0.16259 0.747013,0.554957 1.043504,0.871929 1.204271,1.287463 1.907247,3.515595 4.252812,13.47959 1.617388,6.870689 2.456619,10.200626 3.158576,12.532729 0.771442,2.562953 4.121753,10.962906 4.762699,11.941113 0.23401,0.357146 0.513622,0.345476 0.513622,-0.02144 z m 29.871804,-0.297891 c -0.10908,-1.59557 -3.59454,-25.895436 -4.51026,-31.444542 -1.71537,-10.39491 -3.1577,-16.075302 -4.56927,-17.99546 -0.28099,-0.38223 -0.43186,-0.487915 -0.69653,-0.487915 -0.46159,0 -0.79747,0.474329 -1.30767,1.846695 -0.56735,1.52607 -2.776775,7.974677 -2.939854,8.580492 -0.159131,0.591153 -0.116613,0.661221 0.750504,1.236778 1.69249,1.12341 2.36608,3.04228 4.99319,14.224241 2.03276,8.652157 2.66988,11.101474 3.62835,13.948634 0.79096,2.349586 3.23186,8.356732 4.07321,10.024329 0.39405,0.781021 0.62902,0.80814 0.57833,0.06675 z M 60.631225,78.307975 c -0.108195,-1.678256 -0.531958,-5.045517 -0.65032,-5.167494 -0.187275,-0.192991 -0.417059,0.150075 -0.742473,1.108514 l -0.321661,0.947382 0.660332,2.066446 c 0.363181,1.136545 0.71268,2.130454 0.776662,2.208686 0.268112,0.327824 0.351154,-0.02041 0.27746,-1.163534 z m -2.227086,-3.484746 c 0.0973,-0.110499 0.463272,-0.975831 0.813268,-1.92296 0.831635,-2.250498 0.779201,-2.123866 0.879414,-2.123866 0.04807,0 0.28793,0.342917 0.533035,0.762037 0.634363,1.084739 1.782714,2.107233 3.102335,2.762328 l 1.069849,0.531099 3.819506,0.104326 c 4.126871,0.11272 11.273143,0.06564 11.594355,-0.07639 0.183788,-0.08126 0.184888,-0.117197 0.01551,-0.506881 -1.50636,-3.465723 -2.787029,-7.860351 -4.92312,-16.893732 -2.861566,-12.101373 -3.435731,-13.980102 -4.657063,-15.238425 -0.258849,-0.266688 -0.659463,-0.543257 -0.890253,-0.614596 -0.276933,-0.0856 -2.40725,-0.149708 -6.264928,-0.188527 l -5.845306,-0.05882 0.07453,16.675098 c 0.05456,12.207078 0.109563,16.717314 0.205288,16.832656 0.171718,0.206907 0.260358,0.198794 0.473581,-0.04335 z m 49.013061,0.0861 c 2.56363,0 2.85163,-0.01897 2.85163,-0.187822 0,-0.103302 -0.33063,-1.071958 -0.73473,-2.152567 -1.54152,-4.122221 -2.16455,-6.365801 -4.37123,-15.741174 -2.12516,-9.028992 -3.02987,-12.3214 -3.70625,-13.48774 -0.48674,-0.839325 -1.26179,-1.591635 -1.793884,-1.741261 -0.498821,-0.140268 -19.383603,-0.22347 -19.521672,-0.08601 -0.03794,0.03777 0.144272,0.580215 0.404904,1.205438 1.491083,3.576913 2.599149,7.487333 4.925255,17.381474 2.392646,10.177161 3.147799,12.687375 4.164114,13.84197 0.809944,0.920144 0.692505,0.900559 5.881235,0.980848 2.525679,0.03908 5.594938,0.05211 6.820578,0.02895 1.22563,-0.02316 3.51166,-0.04211 5.08005,-0.04211 z m 30.71029,0 c 2.03407,0 2.10507,-0.0078 2.10507,-0.23143 0,-0.127286 -0.2771,-0.966787 -0.61577,-1.865558 -1.5625,-4.146515 -2.40488,-7.210563 -4.83641,-17.591825 -1.69201,-7.223925 -2.39866,-9.787734 -3.17409,-11.516018 -0.42204,-0.940664 -0.78483,-1.427567 -1.39069,-1.866447 l -0.46461,-0.336561 h -9.74108 c -9.53868,0 -9.74108,0.0046 -9.74108,0.221039 0,0.121571 0.31276,1.036778 0.69502,2.033795 1.23437,3.21949 2.32714,7.096005 3.95985,14.047273 2.43301,10.35852 3.4276,14.013197 4.15333,15.261631 0.33632,0.578541 1.10648,1.448673 1.45953,1.648991 0.31972,0.181407 5.70237,0.296709 11.19063,0.239715 2.36237,-0.02453 5.24251,-0.04461 6.4003,-0.04461 z m 32.23102,-0.0091 c 0.0365,-0.03655 -0.19389,-0.708151 -0.51197,-1.492447 -1.32272,-3.261383 -2.28129,-6.545468 -3.95749,-13.558628 -3.22388,-13.488616 -3.80996,-15.612301 -4.66468,-16.902687 -0.44923,-0.678226 -1.15887,-1.284175 -1.60944,-1.374289 -0.19452,-0.0389 -4.63514,-0.07073 -9.86802,-0.07073 -8.42495,0 -9.51435,0.01993 -9.51435,0.174028 0,0.09571 0.27833,0.909385 0.61851,1.808156 0.82063,2.168174 1.55523,4.469663 2.30784,7.230376 0.58274,2.13759 0.89451,3.41225 2.75893,11.279877 0.93554,3.947878 1.87702,7.57093 2.35978,9.08107 0.65165,2.038419 1.42904,3.238521 2.34467,3.619588 0.22579,0.09397 1.35265,0.168894 3.2719,0.217547 3.55632,0.09015 16.37167,0.08092 16.46432,-0.01186 z m 28.79699,0.04855 c 0.94338,-0.06247 1.11933,-0.10451 1.11933,-0.26743 0,-0.106318 -0.20527,-0.697791 -0.45615,-1.314382 -1.28725,-3.163669 -2.69772,-8.102214 -4.36299,-15.276404 -2.20293,-9.490535 -3.35073,-13.682003 -4.08654,-14.923077 -0.38125,-0.643047 -1.01289,-1.300235 -1.39296,-1.449303 -0.58577,-0.229754 -5.1722,-0.342776 -12.50908,-0.308257 -3.98851,0.01877 -7.28196,0.06427 -7.31877,0.101131 -0.0368,0.03685 0.14228,0.579302 0.39798,1.205437 1.28615,3.149357 2.62016,7.645802 4.00777,13.508511 2.13852,9.035394 2.46349,10.378471 2.94948,12.189809 0.55763,2.078389 1.18307,3.972474 1.54781,4.687425 0.31946,0.626182 1.00771,1.353071 1.47724,1.560145 0.31132,0.137302 1.06112,0.193218 3.3293,0.248284 4.1756,0.101375 13.97362,0.125785 15.29758,0.03811 z M 213.24764,58.205411 V 41.386688 l -3.81722,2.64e-4 c -2.09947,1.46e-4 -5.01835,0.03423 -6.4864,0.07574 -2.4966,0.07059 -2.66919,0.08925 -2.66919,0.288567 0,0.117202 0.2771,0.948452 0.61577,1.847223 1.03722,2.752535 1.74311,5.017647 2.63797,8.46494 0.37442,1.442407 0.68823,2.749504 2.67342,11.135947 1.26114,5.327694 2.10365,8.327715 2.68761,9.570038 0.30281,0.644183 1.15487,1.621308 1.62645,1.865174 0.44978,0.232589 1.13926,0.361641 2.01406,0.376977 l 0.71753,0.01258 z m 9.12688,13.825169 c 5.12351,-1.69127 6.14199,-2.070902 6.14199,-2.289391 0,-0.07118 -0.33226,-0.887695 -0.73837,-1.814474 -0.9877,-2.254052 -1.49085,-3.754713 -2.7205,-8.114054 -2.15515,-7.640459 -3.23421,-11.052771 -4.22499,-13.36069 -1.10863,-2.582487 -1.86103,-3.214434 -5.09141,-4.276335 -0.74377,-0.244496 -1.47158,-0.444537 -1.61733,-0.444537 h -0.26503 l -0.076,4.151702 c -0.1666,9.09977 -0.0365,28.39651 0.19403,28.769461 0.0511,0.08275 0.64088,-0.06194 1.76889,-0.433997 0.93071,-0.306972 3.91364,-1.29143 6.62874,-2.187685 z m 10.34796,2.461821 c 0.62591,-0.297011 1.44634,-1.316263 2.89873,-3.601195 1.49961,-2.359228 2.19439,-3.498246 2.19439,-3.59747 0,-0.03626 -0.41846,-0.384476 -0.92992,-0.773815 -1.55817,-1.186134 -1.85216,-1.774902 -4.63886,-9.29034 -2.09771,-5.657321 -2.71171,-7.201977 -3.83334,-9.6435 -1.3056,-2.841999 -3.37774,-6.708871 -3.62009,-6.755544 -0.25955,-0.04999 -0.25773,-0.0386 0.52279,3.254035 0.922,3.889514 1.49787,6.68603 3.14197,15.257544 2.3883,12.451444 2.87669,14.733663 3.23854,15.1335 0.22957,0.253671 0.51669,0.25837 1.02579,0.01678 z m -2.66509,-3.931092 c 0.0654,-0.105836 -2.94859,-16.075243 -3.95707,-20.966166 -0.96752,-4.692293 -2.15547,-9.244789 -3.38518,-12.972803 -0.49047,-1.486907 -0.65644,-1.779456 -1.00957,-1.779456 -0.45067,0 -0.97214,0.695362 -1.6429,2.190728 -1.02171,2.277835 -2.123,5.067046 -2.06271,5.224191 0.0305,0.07952 0.32985,0.347551 0.66518,0.595629 0.9826,0.726935 1.44289,1.277185 2.03963,2.438221 1.15029,2.23804 2.12434,4.976185 3.45033,9.699258 2.57855,9.184505 2.93452,10.321072 3.9126,12.492687 1.1124,2.469844 1.75298,3.460715 1.98969,3.077711 z m 21.41984,-8.040753 c 9.95004,-3.261297 12.22402,-4.037054 12.42607,-4.239111 0.073,-0.07302 0.0219,-0.16048 -0.14649,-0.250595 -0.57274,-0.30652 -9.91713,-3.479519 -13.52363,-4.592107 l -1.18663,-0.366073 -0.34894,0.327701 c -0.44677,0.419599 -0.9131,1.396181 -1.25037,2.618498 l -0.26609,0.964373 -0.65956,0.284581 c -0.49415,0.213216 -0.68759,0.250787 -0.77137,0.149823 -0.0615,-0.07412 -0.47923,-0.960422 -0.92825,-1.969567 -1.31633,-2.958368 -2.13738,-4.159475 -3.21325,-4.700598 -0.9676,-0.486672 -12.76707,-4.336079 -12.89602,-4.207139 -0.0822,0.08224 0.34567,1.283602 1.38307,3.883013 0.82619,2.070162 2.08201,5.33961 2.79073,7.26544 0.70871,1.92583 1.51611,4.069787 1.79419,4.764349 0.89991,2.247642 1.72106,3.356412 3.0048,4.057269 l 0.61612,0.336368 1.67996,-0.554481 c 0.92397,-0.304963 6.09702,-2.002249 11.49566,-3.771744 z m -4.9378,-5.8061 c 0.0848,-0.102192 0.11155,-0.298034 0.0666,-0.487915 -0.19622,-0.828786 -1.32643,-4.343713 -2.1823,-6.78692 -1.14733,-3.275201 -1.72665,-4.704232 -2.03129,-5.010638 -0.22825,-0.229581 -0.2283,-0.229579 -0.43958,0.02745 -0.44823,0.545278 -1.49677,3.942331 -1.49677,4.849196 0,0.418775 0.0154,0.43375 0.77493,0.753137 0.5886,0.247513 0.97034,0.520796 1.58766,1.136557 0.83151,0.829423 1.23711,1.542805 2.72912,4.800116 0.4212,0.91952 0.67344,1.102422 0.99164,0.719013 z m 0.93295,-2.268862 c 0.19856,-0.394637 0.51675,-0.93531 0.70711,-1.201497 l 0.3461,-0.483974 -0.30084,-0.377053 c -1.71014,-2.143319 -3.16487,-3.826824 -3.3351,-3.859609 -0.28366,-0.05463 -0.22405,0.189054 0.74156,3.031879 1.02871,3.028618 1.24949,3.607777 1.37528,3.607777 0.0577,0 0.26734,-0.322885 0.46589,-0.717523 z"
     id="path54" />
</svg>
